<svg width="201" height="201" viewBox="0 0 201 201" fill="none" xmlns="http://www.w3.org/2000/svg">
<path d="M185.387 105.242C185.477 104.264 185.751 103.333 186.206 102.448C186.661 101.578 187.261 100.827 188.008 100.194L189.623 101.868C189.086 102.342 188.631 102.897 188.258 103.535C187.9 104.175 187.69 104.828 187.628 105.495C187.551 106.325 187.663 106.97 187.964 107.432C188.265 107.893 188.697 108.15 189.26 108.202C189.556 108.23 189.814 108.194 190.032 108.095C190.249 108.01 190.442 107.871 190.609 107.677C190.79 107.5 190.96 107.276 191.12 107.007C191.278 106.753 191.439 106.469 191.602 106.155L192.655 104.235C192.836 103.893 193.054 103.555 193.31 103.219C193.564 102.899 193.859 102.613 194.197 102.36C194.534 102.107 194.918 101.911 195.35 101.772C195.78 101.648 196.262 101.61 196.795 101.66C197.373 101.713 197.896 101.881 198.363 102.164C198.843 102.463 199.249 102.844 199.58 103.308C199.91 103.772 200.152 104.31 200.304 104.922C200.455 105.549 200.498 106.218 200.432 106.93C200.353 107.775 200.107 108.574 199.694 109.328C199.295 110.083 198.787 110.716 198.172 111.227L196.649 109.763C197.078 109.324 197.427 108.863 197.696 108.38C197.965 107.897 198.129 107.344 198.187 106.721C198.251 106.025 198.147 105.455 197.874 105.011C197.617 104.568 197.221 104.322 196.687 104.273C196.406 104.247 196.156 104.283 195.937 104.383C195.732 104.498 195.539 104.652 195.356 104.844C195.187 105.053 195.023 105.292 194.864 105.561C194.719 105.832 194.574 106.11 194.428 106.395L193.421 108.297C193.204 108.71 192.96 109.084 192.69 109.418C192.419 109.751 192.117 110.03 191.783 110.253C191.447 110.491 191.064 110.664 190.635 110.774C190.222 110.885 189.748 110.916 189.214 110.866C188.622 110.811 188.077 110.641 187.58 110.356C187.083 110.071 186.656 109.68 186.299 109.183C185.955 108.703 185.694 108.126 185.518 107.451C185.355 106.794 185.311 106.057 185.387 105.242Z" fill="white"/>
<path d="M183.362 120.326L195.355 123.528L196.444 119.451L198.558 120.015L195.713 130.671L193.599 130.107L194.688 126.03L182.694 122.829L183.362 120.326Z" fill="white"/>
<path d="M178.437 134.058C178.791 133.287 179.218 132.64 179.72 132.117C180.229 131.613 180.83 131.25 181.522 131.027C182.207 130.817 182.985 130.765 183.854 130.868C184.731 130.992 185.717 131.305 186.813 131.808L194.26 135.223L193.181 137.577L185.551 134.078C184.834 133.749 184.197 133.531 183.64 133.423C183.091 133.335 182.615 133.338 182.212 133.431C181.803 133.538 181.456 133.723 181.172 133.986C180.901 134.255 180.673 134.592 180.487 134.998C180.3 135.404 180.191 135.804 180.157 136.198C180.138 136.598 180.221 136.988 180.407 137.368C180.593 137.748 180.898 138.118 181.323 138.476C181.762 138.841 182.339 139.188 183.056 139.517L190.687 143.016L189.654 145.268L182.206 141.853C181.11 141.351 180.229 140.807 179.564 140.224C178.912 139.646 178.444 139.023 178.162 138.353C177.874 137.697 177.757 137.005 177.812 136.277C177.875 135.569 178.083 134.829 178.437 134.058Z" fill="white"/>
<path d="M173.899 144.01L185.769 152.512L183.494 155.688C182.194 157.503 180.689 158.568 178.981 158.882C177.273 159.197 175.439 158.652 173.479 157.248C172.499 156.546 171.729 155.793 171.169 154.989C170.601 154.198 170.241 153.372 170.088 152.512C169.938 151.673 169.988 150.811 170.237 149.927C170.477 149.056 170.913 148.178 171.546 147.295L173.899 144.01ZM174.097 147.337L173.434 148.263C172.567 149.473 172.249 150.645 172.479 151.781C172.713 152.937 173.562 154.039 175.026 155.088C176.478 156.128 177.771 156.56 178.904 156.383C180.038 156.206 181.034 155.519 181.892 154.321L182.555 153.396L174.097 147.337Z" fill="white"/>
<path d="M162.259 158.954L166.011 162.873L175.517 166.475L173.517 168.39L169.794 166.792C169.263 166.539 168.742 166.296 168.231 166.064C167.73 165.842 167.199 165.609 166.635 165.366L166.571 165.427C166.79 166.001 166.994 166.547 167.183 167.067C167.382 167.598 167.596 168.134 167.827 168.676L169.26 172.465L167.308 174.333L164.14 164.664L160.388 160.745L162.259 158.954Z" fill="white"/>
<path d="M151.642 167.984C152.031 167.71 152.454 167.612 152.91 167.691C153.355 167.778 153.722 168.029 154.014 168.442C154.306 168.856 154.418 169.286 154.352 169.734C154.273 170.19 154.039 170.556 153.649 170.83C153.26 171.105 152.844 171.198 152.399 171.111C151.955 171.024 151.587 170.773 151.296 170.359C151.004 169.946 150.892 169.515 150.958 169.068C151.025 168.62 151.253 168.259 151.642 167.984Z" fill="white"/>
<path d="M139.023 175.834C139.786 175.463 140.527 175.236 141.247 175.151C141.96 175.085 142.655 175.187 143.331 175.454C143.993 175.728 144.627 176.181 145.232 176.813C145.831 177.466 146.393 178.334 146.92 179.419L150.501 186.789L148.171 187.92L144.503 180.37C144.158 179.66 143.805 179.087 143.444 178.65C143.076 178.233 142.707 177.933 142.336 177.749C141.952 177.572 141.567 177.494 141.18 177.516C140.801 177.552 140.41 177.667 140.008 177.862C139.607 178.058 139.268 178.297 138.992 178.58C138.722 178.876 138.538 179.23 138.44 179.642C138.342 180.053 138.344 180.533 138.444 181.08C138.551 181.64 138.776 182.275 139.121 182.985L142.79 190.535L140.561 191.618L136.98 184.248C136.453 183.164 136.118 182.185 135.975 181.311C135.838 180.451 135.874 179.673 136.081 178.976C136.276 178.286 136.625 177.677 137.131 177.151C137.629 176.644 138.26 176.205 139.023 175.834Z" fill="white"/>
<path d="M128.322 188.896L128.351 187.038L124.752 188.013L125.715 189.603C126.147 190.287 126.578 190.995 127.008 191.727C127.423 192.463 127.836 193.191 128.248 193.912L128.334 193.889C128.321 193.044 128.308 192.2 128.295 191.355C128.286 190.525 128.295 189.705 128.322 188.896ZM131.009 180.118L130.239 195.455L127.308 196.249L118.899 183.4L121.528 182.688L123.661 186.204L128.401 184.919L128.467 180.807L131.009 180.118Z" fill="white"/>
<path d="M99.1887 185.036C100.17 185.081 101.113 185.311 102.017 185.726C102.907 186.139 103.686 186.704 104.353 187.421L102.755 189.112C102.257 188.598 101.681 188.169 101.026 187.825C100.371 187.497 99.7088 187.317 99.0397 187.286C98.2071 187.248 97.5673 187.389 97.1203 187.711C96.6733 188.033 96.4367 188.477 96.4105 189.042C96.3967 189.339 96.4445 189.595 96.5538 189.808C96.6482 190.021 96.796 190.207 96.9973 190.365C97.183 190.538 97.414 190.697 97.6903 190.844C97.9517 190.991 98.2429 191.138 98.5638 191.287L100.531 192.25C100.881 192.415 101.229 192.618 101.575 192.857C101.907 193.096 102.207 193.378 102.475 193.703C102.743 194.029 102.956 194.404 103.115 194.828C103.26 195.252 103.319 195.732 103.295 196.267C103.268 196.847 103.124 197.376 102.863 197.856C102.587 198.35 102.225 198.773 101.777 199.124C101.328 199.476 100.802 199.742 100.197 199.923C99.5782 200.103 98.9117 200.176 98.1981 200.143C97.3506 200.104 96.5408 199.895 95.7686 199.516C94.9958 199.153 94.34 198.675 93.8012 198.084L95.1935 196.495C95.6513 196.904 96.1278 197.231 96.623 197.477C97.1182 197.724 97.678 197.862 98.3024 197.891C99.0012 197.923 99.566 197.793 99.9968 197.5C100.427 197.222 100.654 196.815 100.679 196.28C100.692 195.997 100.644 195.749 100.535 195.536C100.41 195.336 100.247 195.15 100.047 194.977C99.8305 194.818 99.5843 194.665 99.308 194.518C99.0311 194.386 98.7467 194.253 98.4548 194.121L96.5082 193.203C96.0853 193.005 95.7009 192.779 95.3551 192.524C95.0093 192.27 94.7173 191.981 94.479 191.657C94.2258 191.332 94.0346 190.958 93.9052 190.535C93.7751 190.127 93.7225 189.655 93.7473 189.12C93.7748 188.525 93.9196 187.973 94.1816 187.463C94.4436 186.954 94.8144 186.509 95.2939 186.129C95.7578 185.763 96.3224 185.477 96.9876 185.269C97.6373 185.076 98.371 184.998 99.1887 185.036Z" fill="white"/>
<path d="M84.0538 183.699L81.4031 195.826L85.5253 196.727L85.0581 198.864L74.2836 196.509L74.7508 194.372L78.873 195.273L81.5237 183.146L84.0538 183.699Z" fill="white"/>
<path d="M70.1467 179.42C70.9329 179.739 71.5985 180.138 72.1435 180.616C72.6691 181.102 73.0589 181.685 73.3127 182.366C73.5528 183.042 73.6404 183.816 73.5755 184.689C73.4912 185.571 73.2225 186.57 72.7696 187.687L69.6909 195.28L67.2909 194.307L70.445 186.528C70.7414 185.797 70.931 185.151 71.0138 184.59C71.0772 184.038 71.0532 183.562 70.9417 183.164C70.8165 182.76 70.6163 182.421 70.3412 182.149C70.0605 181.891 69.7132 181.678 69.2994 181.51C68.8856 181.342 68.4811 181.251 68.086 181.235C67.6852 181.233 67.2992 181.334 66.9279 181.536C66.5566 181.739 66.2013 182.061 65.862 182.501C65.5172 182.956 65.1965 183.549 64.9001 184.28L61.746 192.059L59.4494 191.128L62.5281 183.535C62.9811 182.417 63.4842 181.513 64.0374 180.822C64.5851 180.145 65.1872 179.65 65.8437 179.338C66.4864 179.02 67.1725 178.873 67.9021 178.896C68.6123 178.927 69.3605 179.102 70.1467 179.42Z" fill="white"/>
<path d="M60.0127 175.365L52.0396 187.597L48.7665 185.463C46.8962 184.244 45.7665 182.788 45.3775 181.095C44.9884 179.403 45.4522 177.546 46.7689 175.526C47.4272 174.517 48.1455 173.714 48.9237 173.12C49.6895 172.518 50.4987 172.121 51.3512 171.931C52.1832 171.745 53.0462 171.756 53.94 171.966C54.8214 172.167 55.7172 172.565 56.6275 173.158L60.0127 175.365ZM56.6972 175.709L55.7433 175.087C54.4964 174.274 53.3109 174.008 52.1868 174.288C51.0421 174.572 49.978 175.469 48.9946 176.977C48.0193 178.474 47.6448 179.784 47.8711 180.909C48.0973 182.033 48.8277 182.998 50.0621 183.803L51.016 184.424L56.6972 175.709Z" fill="white"/>
<path d="M44.6409 164.479L40.9035 168.412L37.7542 178.078L35.7475 176.171L37.1669 172.376C37.3953 171.833 37.6133 171.301 37.8212 170.78C38.0188 170.27 38.226 169.728 38.4431 169.154L38.3783 169.092C37.8161 169.338 37.2797 169.567 36.7693 169.78C36.2486 170.004 35.723 170.244 35.1926 170.5L31.4751 172.11L29.517 170.249L39.0263 166.628L42.7636 162.695L44.6409 164.479Z" fill="white"/>
<path d="M35.1556 154.339C35.4482 154.715 35.566 155.133 35.5089 155.592C35.4426 156.04 35.2099 156.419 34.8106 156.73C34.4114 157.041 33.9866 157.174 33.5362 157.129C33.0766 157.071 32.7005 156.855 32.4079 156.479C32.1152 156.104 32.002 155.692 32.0683 155.244C32.1345 154.796 32.3673 154.417 32.7665 154.106C33.1658 153.795 33.5906 153.662 34.041 153.707C34.4914 153.753 34.8629 153.963 35.1556 154.339Z" fill="white"/>
<path d="M26.7105 142.104C27.1175 142.848 27.3808 143.578 27.5003 144.293C27.5997 145.002 27.5321 145.701 27.2976 146.389C27.056 147.064 26.6339 147.718 26.0311 148.353C25.4081 148.982 24.5678 149.586 23.51 150.165L16.321 154.096L15.0785 151.823L22.4438 147.796C23.1359 147.417 23.6914 147.037 24.1103 146.656C24.509 146.268 24.7913 145.885 24.9572 145.505C25.116 145.113 25.175 144.725 25.1342 144.34C25.0803 143.962 24.9463 143.578 24.732 143.186C24.5178 142.794 24.2627 142.467 23.9666 142.205C23.6575 141.95 23.295 141.783 22.8792 141.705C22.4634 141.627 21.9847 141.652 21.4432 141.778C20.8886 141.912 20.2652 142.168 19.5731 142.546L12.2079 146.574L11.0189 144.399L18.2078 140.468C19.2656 139.89 20.2274 139.508 21.0931 139.323C21.9458 139.145 22.725 139.143 23.4308 139.317C24.1295 139.478 24.754 139.798 25.3045 140.277C25.8348 140.751 26.3034 141.36 26.7105 142.104Z" fill="white"/>
<path d="M13.1216 131.991L14.9792 131.935L13.8417 128.384L12.2974 129.418C11.633 129.881 10.9451 130.344 10.2336 130.806C9.51763 131.254 8.80871 131.7 8.10688 132.144L8.13413 132.229C8.97729 132.178 9.82044 132.126 10.6636 132.075C11.4926 132.028 12.3119 132 13.1216 131.991ZM22.0123 134.277L6.65655 134.203L5.73018 131.311L18.1842 122.328L19.0152 124.922L15.5993 127.212L17.0979 131.889L21.2085 131.768L22.0123 134.277Z" fill="white"/>
<path d="M16 102.889C16 103.916 15.8033 104.913 15.41 105.878C15.0167 106.828 14.4582 107.669 13.7345 108.4L11.8702 106.812C12.3894 106.267 12.8142 105.645 13.1445 104.944C13.4592 104.243 13.6165 103.543 13.6165 102.842C13.6165 101.97 13.4356 101.308 13.0737 100.857C12.7119 100.405 12.2321 100.18 11.6342 100.18C11.3196 100.18 11.0521 100.242 10.8319 100.366C10.6116 100.475 10.4228 100.639 10.2655 100.857C10.0924 101.059 9.9351 101.308 9.79351 101.604C9.65192 101.884 9.51032 102.196 9.36873 102.538L8.44838 104.64C8.29105 105.014 8.0944 105.388 7.85841 105.761C7.62242 106.119 7.33923 106.446 7.00885 106.742C6.67847 107.038 6.29302 107.279 5.85251 107.466C5.412 107.637 4.90855 107.723 4.34218 107.723C3.72861 107.723 3.16224 107.599 2.64307 107.349C2.10816 107.085 1.64405 106.727 1.25074 106.275C0.857423 105.824 0.550639 105.286 0.330383 104.664C0.110128 104.025 0 103.332 0 102.585C0 101.698 0.180924 100.841 0.542773 100.016C0.888888 99.1909 1.36086 98.4825 1.9587 97.8908L3.70501 99.2688C3.29597 99.767 2.97345 100.281 2.73746 100.81C2.50148 101.34 2.38348 101.931 2.38348 102.585C2.38348 103.317 2.54867 103.901 2.87906 104.337C3.19371 104.773 3.63422 104.991 4.20059 104.991C4.49951 104.991 4.7591 104.928 4.97935 104.804C5.18387 104.664 5.37266 104.485 5.54572 104.267C5.70305 104.033 5.85251 103.768 5.9941 103.473C6.11996 103.177 6.24582 102.873 6.37168 102.562L7.24484 100.483C7.43363 100.032 7.65388 99.6191 7.9056 99.2454C8.15732 98.8717 8.44838 98.5525 8.77876 98.2879C9.10915 98.0076 9.49459 97.7896 9.9351 97.6339C10.3599 97.4782 10.8555 97.4004 11.4218 97.4004C12.0511 97.4004 12.6411 97.5249 13.1917 97.7741C13.7424 98.0232 14.2301 98.3891 14.6549 98.8717C15.0639 99.3388 15.3943 99.9149 15.646 100.6C15.882 101.269 16 102.032 16 102.889Z" fill="white"/>
<path d="M16.1919 87.8312L3.94846 85.786L3.25324 89.9479L1.09521 89.5874L2.91235 78.7092L5.07038 79.0697L4.37515 83.2316L16.6186 85.2768L16.1919 87.8312Z" fill="white"/>
<path d="M19.8058 73.5702C19.5258 74.371 19.1603 75.0552 18.7095 75.6229C18.2496 76.1716 17.6857 76.5893 17.0177 76.8761C16.3547 77.1488 15.5856 77.274 14.7104 77.2518C13.8261 77.2105 12.8149 76.9909 11.6769 76.593L3.94263 73.8882L4.79754 71.4436L12.7215 74.2147C13.4661 74.4751 14.1204 74.633 14.6845 74.6883C15.2394 74.7247 15.7131 74.6775 16.1058 74.5468C16.5033 74.402 16.8313 74.1855 17.0897 73.8975C17.334 73.6045 17.5299 73.2473 17.6773 72.8258C17.8247 72.4043 17.8966 71.9959 17.893 71.6004C17.8753 71.2 17.7562 70.8194 17.5355 70.4584C17.3149 70.0974 16.9762 69.7582 16.5196 69.4408C16.0489 69.1185 15.4412 68.8272 14.6966 68.5668L6.7727 65.7957L7.59077 63.4564L15.325 66.1612C16.463 66.5592 17.3907 67.0176 18.108 67.5365C18.8112 68.0505 19.3347 68.6278 19.6783 69.2683C20.0268 69.8948 20.2075 70.5729 20.2204 71.3027C20.2241 72.0135 20.0859 72.7694 19.8058 73.5702Z" fill="white"/>
<path d="M23.3764 63.2019L10.7778 55.8218L12.7526 52.4506C13.8811 50.5242 15.2814 49.3263 16.9536 48.8569C18.6258 48.3875 20.5021 48.7621 22.5826 49.9809C23.6229 50.5902 24.4584 51.2694 25.0891 52.0184C25.7274 52.7545 26.162 53.5438 26.3929 54.3863C26.6185 55.2085 26.648 56.071 26.4814 56.9738C26.3223 57.8638 25.9681 58.7776 25.4189 59.7151L23.3764 63.2019ZM22.8746 59.9065L23.4502 58.924C24.2025 57.6398 24.412 56.4429 24.0786 55.3334C23.74 54.2036 22.7937 53.1835 21.2398 52.2733C19.6987 51.3705 18.3718 51.059 17.2592 51.3387C16.1466 51.6185 15.2179 52.394 14.4732 53.6654L13.8976 54.6479L22.8746 59.9065Z" fill="white"/>
<path d="M33.4474 47.3953L29.3428 43.8479L19.5391 41.1587L21.3493 39.0641L25.2067 40.3028C25.7596 40.5052 26.3012 40.6979 26.8316 40.8809C27.3507 41.0541 27.9021 41.2356 28.4857 41.4252L28.5441 41.3577C28.2719 40.8077 28.0174 40.2828 27.7805 39.7829C27.5323 39.2734 27.2681 38.7598 26.9877 38.242L25.2033 34.6048L26.9697 32.5609L31.0362 41.8885L35.1409 45.4359L33.4474 47.3953Z" fill="white"/>
<path d="M42.906 37.6C42.5445 37.9101 42.1329 38.0475 41.6712 38.0122C41.2208 37.9672 40.8308 37.7526 40.5013 37.3686C40.1718 36.9845 40.0191 36.5664 40.0431 36.1144C40.0784 35.6527 40.2768 35.2667 40.6383 34.9566C40.9998 34.6465 41.4057 34.5139 41.8561 34.5589C42.3066 34.6039 42.6965 34.8185 43.0261 35.2026C43.3556 35.5866 43.5083 36.0047 43.4843 36.4567C43.4603 36.9088 43.2675 37.2898 42.906 37.6Z" fill="white"/>
<path d="M54.8209 28.4484C54.0968 28.8906 53.3806 29.1885 52.6722 29.3422C51.9687 29.4754 51.2677 29.4413 50.5693 29.24C49.8835 29.031 49.2091 28.6407 48.546 28.069C47.8879 27.4769 47.2446 26.6664 46.6162 25.6375L42.3455 18.645L44.5556 17.2951L48.9311 24.4591C49.3423 25.1323 49.7486 25.669 50.1499 26.0691C50.5562 26.4488 50.9527 26.7125 51.3393 26.86C51.7386 26.9998 52.1295 27.0401 52.5119 26.981C52.8866 26.9091 53.2645 26.7568 53.6455 26.5241C54.0266 26.2913 54.341 26.0208 54.5887 25.7125C54.8287 25.3916 54.9776 25.0215 55.0356 24.6025C55.0936 24.1834 55.0464 23.7064 54.8942 23.1715C54.7341 22.624 54.4485 22.0136 54.0374 21.3404L49.6619 14.1764L51.7767 12.8847L56.0475 19.8772C56.6759 20.9061 57.1032 21.8485 57.3295 22.7044C57.548 23.5476 57.5873 24.3258 57.4475 25.0391C57.3203 25.7446 57.0305 26.3838 56.5781 26.9566C56.1306 27.5089 55.5449 28.0062 54.8209 28.4484Z" fill="white"/>
<path d="M64.2778 14.3392L64.4245 16.1918L67.9152 14.882L66.807 13.3902C66.3121 12.7492 65.8164 12.0847 65.3198 11.3967C64.8371 10.7035 64.3571 10.0172 63.8796 9.33795L63.796 9.36933C63.8885 10.209 63.981 11.0486 64.0735 11.8882C64.1607 12.7139 64.2288 13.5309 64.2778 14.3392ZM62.4295 23.331L61.7523 7.99004L64.5951 6.92337L74.1768 18.9232L71.6267 19.88L69.1724 16.5802L64.5738 18.3057L64.896 22.4055L62.4295 23.331Z" fill="white"/>
<path d="M93.2378 15.38C92.2567 15.4293 91.296 15.2912 90.3557 14.9658C89.4303 14.6397 88.6011 14.1523 87.8681 13.5036L89.2959 11.666C89.8408 12.1304 90.4556 12.5019 91.1402 12.7805C91.824 13.0442 92.5004 13.1593 93.1694 13.1257C94.0018 13.0839 94.625 12.8812 95.0389 12.5177C95.4528 12.1541 95.6456 11.6899 95.6172 11.1251C95.6023 10.8278 95.5302 10.578 95.4008 10.3759C95.2863 10.173 95.1213 10.0025 94.9057 9.86426C94.7042 9.71045 94.4589 9.57374 94.1698 9.45413C93.8955 9.33378 93.5915 9.21492 93.2577 9.09755L91.2073 8.3287C90.843 8.19796 90.4769 8.03006 90.109 7.82499C89.7559 7.61918 89.4303 7.36728 89.1322 7.06929C88.8341 6.77131 88.5854 6.41868 88.3861 6.01141C88.2017 5.6034 88.096 5.13182 88.0692 4.59667C88.0401 4.01693 88.1321 3.47582 88.3453 2.97333C88.5727 2.45523 88.8925 1.99954 89.305 1.60627C89.7174 1.213 90.2157 0.89738 90.7999 0.659415C91.3989 0.420704 92.0551 0.283437 92.7687 0.247613C93.616 0.205072 94.4422 0.334973 95.2472 0.637315C96.0514 0.924791 96.7502 1.33679 97.3434 1.8733L96.1107 3.58938C95.6156 3.22677 95.1098 2.94666 94.5932 2.74906C94.0766 2.55146 93.5061 2.46833 92.8817 2.49968C92.1831 2.53476 91.6335 2.71883 91.2329 3.05189C90.8316 3.37009 90.6444 3.79676 90.6713 4.33191C90.6855 4.61435 90.7572 4.85663 90.8866 5.05878C91.0301 5.2453 91.21 5.4151 91.4263 5.56817C91.6568 5.70563 91.9166 5.83416 92.2057 5.95376C92.4941 6.05851 92.79 6.16287 93.0932 6.26687L95.1192 6.99225C95.5592 7.14898 95.9636 7.33732 96.3323 7.55725C96.701 7.77718 97.0195 8.03688 97.2879 8.33636C97.5711 8.6351 97.7975 8.98884 97.9671 9.3976C98.1359 9.7915 98.2337 10.256 98.2606 10.7912C98.2905 11.3858 98.1995 11.9492 97.9878 12.4814C97.7761 13.0136 97.4499 13.492 97.0092 13.9165C96.5827 14.3254 96.0483 14.6651 95.4062 14.9358C94.7782 15.1909 94.0554 15.3389 93.2378 15.38Z" fill="white"/>
<path d="M108.754 15.2172L110.234 2.89254L106.044 2.38961L106.305 0.217285L117.255 1.53182L116.995 3.70415L112.805 3.20122L111.326 15.5259L108.754 15.2172Z" fill="white"/>
<path d="M122.879 18.0629C122.066 17.8224 121.364 17.491 120.775 17.0686C120.205 16.6361 119.76 16.0933 119.44 15.4403C119.136 14.7914 118.973 14.0294 118.952 13.1541C118.95 12.2688 119.12 11.2481 119.461 10.0919L121.784 2.23438L124.267 2.9684L121.888 11.0187C121.664 11.7752 121.539 12.4364 121.511 13.0025C121.502 13.5586 121.572 14.0294 121.722 14.4152C121.886 14.8051 122.119 15.1221 122.419 15.3661C122.724 15.5958 123.09 15.7739 123.518 15.9005C123.946 16.027 124.358 16.0788 124.753 16.0558C125.152 16.0185 125.526 15.8808 125.876 15.6428C126.226 15.4047 126.548 15.0498 126.842 14.5782C127.141 14.0922 127.402 13.471 127.626 12.7145L130.005 4.66425L132.382 5.36664L130.059 13.2242C129.718 14.3804 129.305 15.3294 128.822 16.0712C128.343 16.7988 127.792 17.35 127.17 17.7246C126.561 18.1034 125.893 18.3172 125.164 18.3658C124.454 18.4043 123.693 18.3034 122.879 18.0629Z" fill="white"/>
<path d="M133.597 21.1642L140.365 8.22607L143.827 10.0369C145.805 11.0717 147.069 12.4129 147.618 14.0607C148.167 15.7084 147.882 17.6006 146.765 19.7371C146.206 20.8054 145.568 21.6725 144.85 22.3384C144.145 23.0113 143.378 23.4832 142.547 23.7543C141.737 24.0191 140.877 24.09 139.967 23.9668C139.07 23.8506 138.141 23.5407 137.178 23.0371L133.597 21.1642ZM136.865 20.5049L137.874 21.0326C139.192 21.7224 140.398 21.8743 141.49 21.4882C142.603 21.0957 143.576 20.1016 144.411 18.5058C145.239 16.9231 145.486 15.5829 145.153 14.485C144.82 13.3871 144.001 12.4967 142.696 11.8137L141.687 11.286L136.865 20.5049Z" fill="white"/>
<path d="M149.93 30.4916L153.279 26.2237L155.501 16.3037L157.679 18.0128L156.625 21.9245C156.449 22.4863 156.282 23.0365 156.124 23.5749C155.975 24.1017 155.82 24.661 155.659 25.253L155.729 25.3081C156.265 25.0102 156.778 24.7311 157.266 24.4708C157.763 24.1988 158.263 23.9106 158.767 23.606L162.316 21.6515L164.441 23.3192L155.316 27.8225L151.967 32.0904L149.93 30.4916Z" fill="white"/>
<path d="M160.582 39.8969C160.256 39.5493 160.101 39.1441 160.116 38.6813C160.142 38.2293 160.339 37.8303 160.708 37.4844C161.078 37.1384 161.489 36.9676 161.941 36.9719C162.404 36.987 162.798 37.1684 163.124 37.516C163.449 37.8636 163.6 38.2634 163.574 38.7154C163.549 39.1674 163.352 39.5663 162.982 39.9123C162.613 40.2582 162.202 40.429 161.749 40.4248C161.297 40.4205 160.908 40.2445 160.582 39.8969Z" fill="white"/>
<path d="M169.918 50.991C169.442 50.2889 169.11 49.5877 168.923 48.8874C168.756 48.1911 168.757 47.4893 168.925 46.782C169.101 46.0871 169.458 45.3948 169.998 44.7052C170.558 44.0196 171.337 43.3385 172.335 42.6617L179.115 38.0625L180.569 40.2058L173.622 44.9178C172.969 45.3606 172.452 45.792 172.072 46.212C171.712 46.6359 171.467 47.0445 171.339 47.4377C171.218 47.8432 171.196 48.2356 171.274 48.6148C171.363 48.9856 171.533 49.3558 171.784 49.7253C172.035 50.0948 172.32 50.396 172.64 50.6287C172.972 50.8531 173.348 50.9843 173.77 51.0222C174.191 51.0601 174.665 50.9903 175.192 50.8127C175.732 50.6268 176.328 50.3124 176.98 49.8696L183.928 45.1576L185.319 47.2085L178.538 51.8077C177.54 52.4844 176.619 52.9562 175.775 53.223C174.943 53.4815 174.168 53.5578 173.449 53.4521C172.738 53.3587 172.086 53.0997 171.492 52.6751C170.919 52.2545 170.394 51.6931 169.918 50.991Z" fill="white"/>
<path d="M184.44 59.7282L182.597 59.9648L184.075 63.3877L185.511 62.2083C186.127 61.6829 186.767 61.1554 187.43 60.6259C188.099 60.1101 188.761 59.5972 189.416 59.0873L189.381 59.0053C188.546 59.1386 187.712 59.2718 186.878 59.405C186.058 59.5323 185.245 59.64 184.44 59.7282ZM175.369 58.3194L190.659 56.897L191.862 59.6846L180.343 69.8385L179.263 67.3379L182.44 64.726L180.492 60.2168L176.413 60.738L175.369 58.3194Z" fill="white"/>
</svg>
