<svg width="46" height="46" viewBox="0 0 46 46" fill="none" xmlns="http://www.w3.org/2000/svg">
<path d="M14.5 14.5H18C18.6667 14.3333 20.1 13.9 20.5 13.5C21 13 22.5 12.5 23 12C23.5 11.5 25 11 26.5 11H30.5C31.5 11 34.5 12.5 35 12.5C35.5 12.5 42 15 42.5 15.5C43 16 42 19.5 42 20C42 20.4 41.6667 23.5 41.5 25L38 31C36.8333 33 34.4 37 34 37C33.6 37 31.8333 39 31 40L27.5 40.5L22.5 37.5L17.5 31L15 22V17L14.5 14.5Z" fill="#C6C4FF"/>
<path d="M28.197 8.84619C24.9626 8.84619 22.7834 10.1213 20.8298 11.1821C18.8748 12.243 17.101 13.1587 13.822 13.1587H12.3845V14.5962C12.3845 25.6923 16.1364 32.9128 19.9314 37.2814C23.7264 41.6514 27.658 43.2571 27.658 43.2571L28.197 43.4368L28.7361 43.2571C28.7361 43.2571 32.6662 41.6844 36.4626 37.3274C40.2576 32.9674 44.0095 25.7296 44.0095 14.5962V13.1587H42.572C39.3089 13.1587 37.5178 12.243 35.5642 11.1821C33.6092 10.1213 31.4314 8.84619 28.197 8.84619ZM28.197 11.7212C30.7126 11.7212 32.1559 12.6024 34.1713 13.6978C36.2973 14.8569 38.6353 15.5752 41.0454 15.8094C40.7694 25.5341 37.5523 31.7168 34.3064 35.4399C31.3638 38.8152 28.8928 39.9379 28.197 40.2469C27.4955 39.9321 25.0302 38.7807 22.0876 35.3954C18.8418 31.6608 15.6246 25.491 15.3486 15.8094C17.7591 15.5769 20.0975 14.8586 22.2228 13.6978C24.2381 12.6024 25.6814 11.7212 28.197 11.7212Z" fill="#C6C4FF"/>
<path d="M23 5.75C19.7656 5.75 17.5864 7.02506 15.6328 8.08594C13.6778 9.14681 11.9039 10.0625 8.625 10.0625H7.1875V11.5C7.1875 22.5961 10.9394 29.8166 14.7344 34.1852C18.5294 38.5552 22.4609 40.1609 22.4609 40.1609L23 40.3406L23.5391 40.1609C23.5391 40.1609 27.4692 38.5882 31.2656 34.2312C35.0606 29.8713 38.8125 22.6334 38.8125 11.5V10.0625H37.375C34.1119 10.0625 32.3207 9.14681 30.3672 8.08594C28.4122 7.02506 26.2344 5.75 23 5.75ZM23 8.625C25.5156 8.625 26.9589 9.50619 28.9743 10.6016C31.1002 11.7607 33.4383 12.479 35.8484 12.7132C35.5724 22.4379 32.3552 28.6206 29.1094 32.3438C26.1668 35.719 23.6957 36.8417 23 37.1507C22.2985 36.8359 19.8332 35.6845 16.8906 32.2992C13.6448 28.5646 10.4276 22.3948 10.1516 12.7132C12.5621 12.4807 14.9005 11.7624 17.0258 10.6016C19.0411 9.50619 20.4844 8.625 23 8.625Z" fill="black"/>
</svg>
