<svg width="52" height="52" viewBox="0 0 52 52" fill="none" xmlns="http://www.w3.org/2000/svg">
<path d="M25.3502 20.1501C25.3502 22.2188 24.5285 24.2028 23.0657 25.6655C21.6029 27.1283 19.6189 27.9501 17.5502 27.9501C15.4816 27.9501 13.4976 27.1283 12.0348 25.6655C10.572 24.2028 9.75024 22.2188 9.75024 20.1501C9.75024 18.0814 10.572 16.0974 12.0348 14.6347C13.4976 13.1719 15.4816 12.3501 17.5502 12.3501C19.6189 12.3501 21.6029 13.1719 23.0657 14.6347C24.5285 16.0974 25.3502 18.0814 25.3502 20.1501Z" fill="#C6C5FF"/>
<path opacity="0.8" fill-rule="evenodd" clip-rule="evenodd" d="M17.5502 22.7501C18.2398 22.7501 18.9011 22.4762 19.3887 21.9886C19.8763 21.501 20.1502 20.8397 20.1502 20.1501C20.1502 19.4605 19.8763 18.7992 19.3887 18.3116C18.9011 17.824 18.2398 17.5501 17.5502 17.5501C16.8607 17.5501 16.1994 17.824 15.7118 18.3116C15.2242 18.7992 14.9502 19.4605 14.9502 20.1501C14.9502 20.8397 15.2242 21.501 15.7118 21.9886C16.1994 22.4762 16.8607 22.7501 17.5502 22.7501ZM17.5502 27.9501C18.5746 27.9501 19.5888 27.7483 20.5352 27.3564C21.4815 26.9644 22.3414 26.3898 23.0657 25.6655C23.79 24.9412 24.3645 24.0814 24.7565 23.135C25.1485 22.1887 25.3502 21.1744 25.3502 20.1501C25.3502 19.1258 25.1485 18.1115 24.7565 17.1652C24.3645 16.2188 23.79 15.359 23.0657 14.6347C22.3414 13.9104 21.4815 13.3358 20.5352 12.9438C19.5888 12.5519 18.5746 12.3501 17.5502 12.3501C15.4816 12.3501 13.4976 13.1719 12.0348 14.6347C10.572 16.0974 9.75024 18.0814 9.75024 20.1501C9.75024 22.2188 10.572 24.2028 12.0348 25.6655C13.4976 27.1283 15.4816 27.9501 17.5502 27.9501Z" fill="#C6C5FF"/>
<path fill-rule="evenodd" clip-rule="evenodd" d="M17.6803 29.9001C16.646 29.9001 15.654 30.311 14.9226 31.0424C14.1912 31.7737 13.7803 32.7657 13.7803 33.8001V37.7001C13.7803 38.3896 13.5064 39.051 13.0188 39.5386C12.5312 40.0261 11.8699 40.3001 11.1803 40.3001C10.4908 40.3001 9.82944 40.0261 9.34184 39.5386C8.85425 39.051 8.58032 38.3896 8.58032 37.7001V33.8001C8.58032 31.3866 9.53907 29.072 11.2457 27.3654C12.9522 25.6588 15.2669 24.7001 17.6803 24.7001C20.0938 24.7001 22.4084 25.6588 24.115 27.3654C25.8216 29.072 26.7803 31.3866 26.7803 33.8001V35.1001C26.7803 35.7896 26.5064 36.451 26.0188 36.9386C25.5312 37.4261 24.8699 37.7001 24.1803 37.7001C23.4908 37.7001 22.8294 37.4261 22.3418 36.9386C21.8543 36.451 21.5803 35.7896 21.5803 35.1001V33.8001C21.5803 32.7657 21.1694 31.7737 20.438 31.0424C19.7066 30.311 18.7147 29.9001 17.6803 29.9001Z" fill="#C6C5FF"/>
<path d="M33.1501 20.1501C33.1501 22.2188 33.9719 24.2028 35.4347 25.6655C36.8975 27.1283 38.8815 27.9501 40.9501 27.9501C43.0188 27.9501 45.0028 27.1283 46.4656 25.6655C47.9284 24.2028 48.7501 22.2188 48.7501 20.1501C48.7501 18.0814 47.9284 16.0974 46.4656 14.6347C45.0028 13.1719 43.0188 12.3501 40.9501 12.3501C38.8815 12.3501 36.8975 13.1719 35.4347 14.6347C33.9719 16.0974 33.1501 18.0814 33.1501 20.1501Z" fill="#C6C5FF"/>
<path opacity="0.8" fill-rule="evenodd" clip-rule="evenodd" d="M40.9501 22.7501C40.2606 22.7501 39.5993 22.4762 39.1117 21.9886C38.6241 21.501 38.3501 20.8397 38.3501 20.1501C38.3501 19.4605 38.6241 18.7992 39.1117 18.3116C39.5993 17.824 40.2606 17.5501 40.9501 17.5501C41.6397 17.5501 42.301 17.824 42.7886 18.3116C43.2762 18.7992 43.5501 19.4605 43.5501 20.1501C43.5501 20.8397 43.2762 21.501 42.7886 21.9886C42.301 22.4762 41.6397 22.7501 40.9501 22.7501ZM40.9501 27.9501C39.9258 27.9501 38.9116 27.7483 37.9652 27.3564C37.0189 26.9644 36.159 26.3898 35.4347 25.6655C34.7104 24.9412 34.1359 24.0814 33.7439 23.135C33.3519 22.1887 33.1501 21.1744 33.1501 20.1501C33.1501 19.1258 33.3519 18.1115 33.7439 17.1652C34.1359 16.2188 34.7104 15.359 35.4347 14.6347C36.159 13.9104 37.0189 13.3358 37.9652 12.9438C38.9116 12.5519 39.9258 12.3501 40.9501 12.3501C43.0188 12.3501 45.0028 13.1719 46.4656 14.6347C47.9284 16.0974 48.7501 18.0814 48.7501 20.1501C48.7501 22.2188 47.9284 24.2028 46.4656 25.6655C45.0028 27.1283 43.0188 27.9501 40.9501 27.9501Z" fill="#C6C5FF"/>
<path fill-rule="evenodd" clip-rule="evenodd" d="M40.8205 29.9001C41.8548 29.9001 42.8468 30.311 43.5782 31.0424C44.3096 31.7737 44.7205 32.7657 44.7205 33.8001V37.7001C44.7205 38.3896 44.9944 39.051 45.482 39.5386C45.9696 40.0261 46.6309 40.3001 47.3205 40.3001C48.01 40.3001 48.6713 40.0261 49.1589 39.5386C49.6465 39.051 49.9205 38.3896 49.9205 37.7001V33.8001C49.9205 31.3866 48.9617 29.072 47.2551 27.3654C45.5485 25.6588 43.2339 24.7001 40.8205 24.7001C38.407 24.7001 36.0924 25.6588 34.3858 27.3654C32.6792 29.072 31.7205 31.3866 31.7205 33.8001V35.1001C31.7205 35.7896 31.9944 36.451 32.482 36.9386C32.9696 37.4261 33.6309 37.7001 34.3205 37.7001C35.01 37.7001 35.6713 37.4261 36.1589 36.9386C36.6465 36.451 36.9205 35.7896 36.9205 35.1001V33.8001C36.9205 32.7657 37.3313 31.7737 38.0627 31.0424C38.7941 30.311 39.7861 29.9001 40.8205 29.9001Z" fill="#C6C5FF"/>
<path fill-rule="evenodd" clip-rule="evenodd" d="M29.3803 37.0501C28.3459 37.0501 27.3539 37.461 26.6226 38.1924C25.8912 38.9238 25.4803 39.9158 25.4803 40.9501V44.8501C25.4803 45.5397 25.2063 46.201 24.7188 46.6886C24.2312 47.1762 23.5698 47.4501 22.8803 47.4501C22.1907 47.4501 21.5294 47.1762 21.0418 46.6886C20.5542 46.201 20.2803 45.5397 20.2803 44.8501V40.9501C20.2803 38.5366 21.239 36.222 22.9456 34.5154C24.6522 32.8088 26.9668 31.8501 29.3803 31.8501C31.7937 31.8501 34.1084 32.8088 35.8149 34.5154C37.5215 36.222 38.4803 38.5366 38.4803 40.9501V44.8501C38.4803 45.5397 38.2063 46.201 37.7188 46.6886C37.2312 47.1762 36.5698 47.4501 35.8803 47.4501C35.1907 47.4501 34.5294 47.1762 34.0418 46.6886C33.5542 46.201 33.2803 45.5397 33.2803 44.8501V40.9501C33.2803 39.9158 32.8694 38.9238 32.138 38.1924C31.4066 37.461 30.4146 37.0501 29.3803 37.0501Z" fill="#C6C5FF"/>
<path d="M37.0502 27.3001C37.0502 29.3688 36.2284 31.3528 34.7656 32.8156C33.3028 34.2783 31.3189 35.1001 29.2502 35.1001C27.1815 35.1001 25.1975 34.2783 23.7348 32.8156C22.272 31.3528 21.4502 29.3688 21.4502 27.3001C21.4502 25.2314 22.272 23.2475 23.7348 21.7847C25.1975 20.3219 27.1815 19.5001 29.2502 19.5001C31.3189 19.5001 33.3028 20.3219 34.7656 21.7847C36.2284 23.2475 37.0502 25.2314 37.0502 27.3001Z" fill="#C6C5FF"/>
<path fill-rule="evenodd" clip-rule="evenodd" d="M29.2502 29.9001C29.9398 29.9001 30.6011 29.6262 31.0887 29.1386C31.5763 28.651 31.8502 27.9897 31.8502 27.3001C31.8502 26.6106 31.5763 25.9492 31.0887 25.4616C30.6011 24.9741 29.9398 24.7001 29.2502 24.7001C28.5606 24.7001 27.8993 24.9741 27.4117 25.4616C26.9241 25.9492 26.6502 26.6106 26.6502 27.3001C26.6502 27.9897 26.9241 28.651 27.4117 29.1386C27.8993 29.6262 28.5606 29.9001 29.2502 29.9001ZM29.2502 35.1001C31.3189 35.1001 33.3028 34.2783 34.7656 32.8156C36.2284 31.3528 37.0502 29.3688 37.0502 27.3001C37.0502 25.2314 36.2284 23.2475 34.7656 21.7847C33.3028 20.3219 31.3189 19.5001 29.2502 19.5001C27.1815 19.5001 25.1975 20.3219 23.7348 21.7847C22.272 23.2475 21.4502 25.2314 21.4502 27.3001C21.4502 29.3688 22.272 31.3528 23.7348 32.8156C25.1975 34.2783 27.1815 35.1001 29.2502 35.1001Z" fill="#C6C5FF"/>
<path d="M11.0503 29.9H24.0503V40.3H11.0503V29.9Z" fill="#C6C5FF"/>
<path d="M34.4502 29.9H47.4502V40.3H34.4502V29.9Z" fill="#C6C5FF"/>
<path d="M24.0502 35.1001H34.4502L35.7502 47.4501H22.7502L24.0502 35.1001Z" fill="#C6C5FF"/>
<path fill-rule="evenodd" clip-rule="evenodd" d="M13.0002 23.4C14.3793 23.4 15.702 22.8522 16.6772 21.877C17.6523 20.9018 18.2002 19.5792 18.2002 18.2C18.2002 16.8209 17.6523 15.4983 16.6772 14.5231C15.702 13.5479 14.3793 13 13.0002 13C11.6211 13 10.2984 13.5479 9.32324 14.5231C8.34805 15.4983 7.8002 16.8209 7.8002 18.2C7.8002 19.5792 8.34805 20.9018 9.32324 21.877C10.2984 22.8522 11.6211 23.4 13.0002 23.4ZM13.0002 26C14.0245 26 15.0388 25.7983 15.9851 25.4063C16.9315 25.0143 17.7913 24.4398 18.5156 23.7155C19.2399 22.9912 19.8145 22.1313 20.2065 21.185C20.5984 20.2386 20.8002 19.2243 20.8002 18.2C20.8002 17.1757 20.5984 16.1614 20.2065 15.2151C19.8145 14.2688 19.2399 13.4089 18.5156 12.6846C17.7913 11.9603 16.9315 11.3858 15.9851 10.9938C15.0388 10.6018 14.0245 10.4 13.0002 10.4C10.9315 10.4 8.94755 11.2218 7.48476 12.6846C6.02198 14.1474 5.2002 16.1313 5.2002 18.2C5.2002 20.2687 6.02198 22.2527 7.48476 23.7155C8.94755 25.1782 10.9315 26 13.0002 26Z" fill="black"/>
<path fill-rule="evenodd" clip-rule="evenodd" d="M10.0205 23.1297C10.1416 23.2505 10.2377 23.3939 10.3032 23.5519C10.3687 23.7098 10.4025 23.8791 10.4025 24.0501C10.4025 24.2211 10.3687 24.3904 10.3032 24.5484C10.2377 24.7063 10.1416 24.8498 10.0205 24.9705L9.14175 25.8467C7.45054 27.5384 6.50037 29.8325 6.50015 32.2245V37.0501C6.50015 37.3949 6.36318 37.7256 6.11938 37.9694C5.87559 38.2132 5.54493 38.3501 5.20015 38.3501C4.85536 38.3501 4.5247 38.2132 4.28091 37.9694C4.03711 37.7256 3.90015 37.3949 3.90015 37.0501V32.2245C3.90052 29.143 5.12471 26.1877 7.30355 24.0085L8.17975 23.1297C8.3005 23.0087 8.44396 22.9126 8.6019 22.8471C8.75984 22.7815 8.92915 22.7478 9.10015 22.7478C9.27114 22.7478 9.44046 22.7815 9.59839 22.8471C9.75633 22.9126 9.89979 23.0087 10.0205 23.1297Z" fill="black"/>
<path fill-rule="evenodd" clip-rule="evenodd" d="M40.6798 22.3496C40.5587 22.4703 40.4627 22.6138 40.3971 22.7717C40.3316 22.9297 40.2979 23.099 40.2979 23.27C40.2979 23.441 40.3316 23.6103 40.3971 23.7682C40.4627 23.9262 40.5587 24.0696 40.6798 24.1904L41.5586 25.0666C42.3961 25.9041 43.0604 26.8984 43.5137 27.9928C43.9669 29.0871 44.2002 30.2599 44.2002 31.4444V37.05C44.2002 37.3948 44.3371 37.7254 44.5809 37.9692C44.8247 38.213 45.1554 38.35 45.5002 38.35C45.845 38.35 46.1756 38.213 46.4194 37.9692C46.6632 37.7254 46.8002 37.3948 46.8002 37.05V31.4444C46.7998 28.3628 45.5756 25.4075 43.3968 23.2284L42.5206 22.3496C42.3998 22.2285 42.2564 22.1325 42.0984 22.0669C41.9405 22.0014 41.7712 21.9677 41.6002 21.9677C41.4292 21.9677 41.2599 22.0014 41.1019 22.0669C40.944 22.1325 40.8005 22.2285 40.6798 22.3496Z" fill="black"/>
<path fill-rule="evenodd" clip-rule="evenodd" d="M36.4001 23.4C35.021 23.4 33.6983 22.8522 32.7231 21.877C31.748 20.9018 31.2001 19.5792 31.2001 18.2C31.2001 16.8209 31.748 15.4983 32.7231 14.5231C33.6983 13.5479 35.021 13 36.4001 13C37.7792 13 39.1019 13.5479 40.0771 14.5231C41.0522 15.4983 41.6001 16.8209 41.6001 18.2C41.6001 19.5792 41.0522 20.9018 40.0771 21.877C39.1019 22.8522 37.7792 23.4 36.4001 23.4ZM36.4001 26C35.3758 26 34.3615 25.7983 33.4152 25.4063C32.4688 25.0143 31.609 24.4398 30.8847 23.7155C30.1604 22.9912 29.5858 22.1313 29.1938 21.185C28.8018 20.2386 28.6001 19.2243 28.6001 18.2C28.6001 17.1757 28.8018 16.1614 29.1938 15.2151C29.5858 14.2688 30.1604 13.4089 30.8847 12.6846C31.609 11.9603 32.4688 11.3858 33.4152 10.9938C34.3615 10.6018 35.3758 10.4 36.4001 10.4C38.4688 10.4 40.4528 11.2218 41.9155 12.6846C43.3783 14.1474 44.2001 16.1313 44.2001 18.2C44.2001 20.2687 43.3783 22.2527 41.9155 23.7155C40.4528 25.1782 38.4688 26 36.4001 26Z" fill="black"/>
<path fill-rule="evenodd" clip-rule="evenodd" d="M24.7001 34.4501C22.9762 34.4501 21.3229 35.1349 20.1039 36.3539C18.8849 37.5729 18.2001 39.2262 18.2001 40.9501V44.3301C18.2001 44.6749 18.0631 45.0055 17.8193 45.2493C17.5755 45.4931 17.2449 45.6301 16.9001 45.6301C16.5553 45.6301 16.2247 45.4931 15.9809 45.2493C15.7371 45.0055 15.6001 44.6749 15.6001 44.3301V40.9501C15.6001 38.5366 16.5588 36.222 18.2654 34.5154C19.972 32.8088 22.2866 31.8501 24.7001 31.8501C27.1136 31.8501 29.4282 32.8088 31.1348 34.5154C32.8413 36.222 33.8001 38.5366 33.8001 40.9501V44.3301C33.8001 44.6749 33.6631 45.0055 33.4193 45.2493C33.1755 45.4931 32.8449 45.6301 32.5001 45.6301C32.1553 45.6301 31.8247 45.4931 31.5809 45.2493C31.3371 45.0055 31.2001 44.6749 31.2001 44.3301V40.9501C31.2001 40.0965 31.032 39.2513 30.7053 38.4627C30.3787 37.674 29.8999 36.9575 29.2963 36.3539C28.6927 35.7503 27.9762 35.2715 27.1875 34.9449C26.3989 34.6182 25.5537 34.4501 24.7001 34.4501Z" fill="black"/>
<path fill-rule="evenodd" clip-rule="evenodd" d="M24.7001 30.5501C26.0793 30.5501 27.4019 30.0022 28.3771 29.027C29.3523 28.0518 29.9001 26.7292 29.9001 25.35C29.9001 23.9709 29.3523 22.6483 28.3771 21.6731C27.4019 20.6979 26.0793 20.15 24.7001 20.15C23.321 20.15 21.9984 20.6979 21.0232 21.6731C20.048 22.6483 19.5001 23.9709 19.5001 25.35C19.5001 26.7292 20.048 28.0518 21.0232 29.027C21.9984 30.0022 23.321 30.5501 24.7001 30.5501ZM24.7001 33.1501C26.7688 33.1501 28.7528 32.3283 30.2156 30.8655C31.6784 29.4027 32.5001 27.4187 32.5001 25.35C32.5001 23.2814 31.6784 21.2974 30.2156 19.8346C28.7528 18.3718 26.7688 17.55 24.7001 17.55C22.6315 17.55 20.6475 18.3718 19.1847 19.8346C17.7219 21.2974 16.9001 23.2814 16.9001 25.35C16.9001 27.4187 17.7219 29.4027 19.1847 30.8655C20.6475 32.3283 22.6315 33.1501 24.7001 33.1501Z" fill="black"/>
</svg>
