<svg width="52" height="52" viewBox="0 0 52 52" fill="none" xmlns="http://www.w3.org/2000/svg">
<path d="M20.2 31.1C20.2 30.7552 20.337 30.4246 20.5808 30.1808C20.8246 29.937 21.1552 29.8 21.5 29.8C21.8448 29.8 22.1754 29.937 22.4192 30.1808C22.663 30.4246 22.8 30.7552 22.8 31.1C22.8 31.4448 22.663 31.7754 22.4192 32.0192C22.1754 32.263 21.8448 32.4 21.5 32.4C21.1552 32.4 20.8246 32.263 20.5808 32.0192C20.337 31.7754 20.2 31.4448 20.2 31.1ZM21.5 35C21.1552 35 20.8246 35.137 20.5808 35.3808C20.337 35.6246 20.2 35.9552 20.2 36.3C20.2 36.6448 20.337 36.9754 20.5808 37.2192C20.8246 37.463 21.1552 37.6 21.5 37.6C21.8448 37.6 22.1754 37.463 22.4192 37.2192C22.663 36.9754 22.8 36.6448 22.8 36.3C22.8 35.9552 22.663 35.6246 22.4192 35.3808C22.1754 35.137 21.8448 35 21.5 35ZM20.2 41.5C20.2 41.1552 20.337 40.8246 20.5808 40.5808C20.8246 40.337 21.1552 40.2 21.5 40.2C21.8448 40.2 22.1754 40.337 22.4192 40.5808C22.663 40.8246 22.8 41.1552 22.8 41.5C22.8 41.8448 22.663 42.1754 22.4192 42.4192C22.1754 42.663 21.8448 42.8 21.5 42.8C21.1552 42.8 20.8246 42.663 20.5808 42.4192C20.337 42.1754 20.2 41.8448 20.2 41.5ZM26.7 29.8C26.3552 29.8 26.0246 29.937 25.7808 30.1808C25.537 30.4246 25.4 30.7552 25.4 31.1C25.4 31.4448 25.537 31.7754 25.7808 32.0192C26.0246 32.263 26.3552 32.4 26.7 32.4H39.7C40.0448 32.4 40.3754 32.263 40.6192 32.0192C40.863 31.7754 41 31.4448 41 31.1C41 30.7552 40.863 30.4246 40.6192 30.1808C40.3754 29.937 40.0448 29.8 39.7 29.8H26.7ZM25.4 36.3C25.4 35.9552 25.537 35.6246 25.7808 35.3808C26.0246 35.137 26.3552 35 26.7 35H39.7C40.0448 35 40.3754 35.137 40.6192 35.3808C40.863 35.6246 41 35.9552 41 36.3C41 36.6448 40.863 36.9754 40.6192 37.2192C40.3754 37.463 40.0448 37.6 39.7 37.6H26.7C26.3552 37.6 26.0246 37.463 25.7808 37.2192C25.537 36.9754 25.4 36.6448 25.4 36.3ZM26.7 40.2C26.3552 40.2 26.0246 40.337 25.7808 40.5808C25.537 40.8246 25.4 41.1552 25.4 41.5C25.4 41.8448 25.537 42.1754 25.7808 42.4192C26.0246 42.663 26.3552 42.8 26.7 42.8H39.7C40.0448 42.8 40.3754 42.663 40.6192 42.4192C40.863 42.1754 41 41.8448 41 41.5C41 41.1552 40.863 40.8246 40.6192 40.5808C40.3754 40.337 40.0448 40.2 39.7 40.2H26.7ZM20.2 9C18.8209 9 17.4982 9.54786 16.523 10.523C15.5479 11.4982 15 12.8209 15 14.2V45.4C15 46.7791 15.5479 48.1018 16.523 49.077C17.4982 50.0521 18.8209 50.6 20.2 50.6H41C42.3791 50.6 43.7018 50.0521 44.677 49.077C45.6521 48.1018 46.2 46.7791 46.2 45.4V23.0764C46.1991 22.0424 45.7876 21.0511 45.056 20.3204L34.8796 10.1414C34.1485 9.41075 33.1572 9.00022 32.1236 9H20.2ZM17.6 14.2C17.6 13.5104 17.8739 12.8491 18.3615 12.3615C18.8491 11.8739 19.5104 11.6 20.2 11.6H30.6V20.7C30.6 21.7343 31.0109 22.7263 31.7423 23.4577C32.4737 24.1891 33.4657 24.6 34.5 24.6H43.6V45.4C43.6 46.0896 43.3261 46.7509 42.8385 47.2385C42.3509 47.7261 41.6896 48 41 48H20.2C19.5104 48 18.8491 47.7261 18.3615 47.2385C17.8739 46.7509 17.6 46.0896 17.6 45.4V14.2ZM43.0618 22H34.5C34.1552 22 33.8246 21.863 33.5808 21.6192C33.337 21.3754 33.2 21.0448 33.2 20.7V12.1382L43.0618 22Z" fill="#C6C4FF"/>
<path d="M19.5 11H31H31.5V17.5L32.5 22L33.5 23L42.5 23.5L45 24V37.5V46.5L43.5 48.5L40.5 49H28L21.5 49.5L17.5 48C17.1667 46.5 16.6 43.2 17 42C17.5 40.5 16 24.5 16 24C16 23.5 16.5 16.5 16 15.5C15.6 14.7 16.8333 13.1667 17.5 12.5L19.5 11Z" fill="#C6C4FF"/>
<path d="M15.5999 27.2999C15.5999 26.9552 15.7369 26.6245 15.9807 26.3807C16.2245 26.1369 16.5551 26 16.8999 26C17.2447 26 17.5753 26.1369 17.8191 26.3807C18.0629 26.6245 18.1999 26.9552 18.1999 27.2999C18.1999 27.6447 18.0629 27.9754 17.8191 28.2192C17.5753 28.463 17.2447 28.6 16.8999 28.6C16.5551 28.6 16.2245 28.463 15.9807 28.2192C15.7369 27.9754 15.5999 27.6447 15.5999 27.2999ZM16.8999 31.2C16.5551 31.2 16.2245 31.3369 15.9807 31.5807C15.7369 31.8245 15.5999 32.1552 15.5999 32.5C15.5999 32.8447 15.7369 33.1754 15.9807 33.4192C16.2245 33.663 16.5551 33.7999 16.8999 33.7999C17.2447 33.7999 17.5753 33.663 17.8191 33.4192C18.0629 33.1754 18.1999 32.8447 18.1999 32.5C18.1999 32.1552 18.0629 31.8245 17.8191 31.5807C17.5753 31.3369 17.2447 31.2 16.8999 31.2ZM15.5999 37.7C15.5999 37.3552 15.7369 37.0245 15.9807 36.7807C16.2245 36.5369 16.5551 36.4 16.8999 36.4C17.2447 36.4 17.5753 36.5369 17.8191 36.7807C18.0629 37.0245 18.1999 37.3552 18.1999 37.7C18.1999 38.0447 18.0629 38.3754 17.8191 38.6192C17.5753 38.863 17.2447 39 16.8999 39C16.5551 39 16.2245 38.863 15.9807 38.6192C15.7369 38.3754 15.5999 38.0447 15.5999 37.7ZM22.0999 26C21.7551 26 21.4245 26.1369 21.1807 26.3807C20.9369 26.6245 20.7999 26.9552 20.7999 27.2999C20.7999 27.6447 20.9369 27.9754 21.1807 28.2192C21.4245 28.463 21.7551 28.6 22.0999 28.6H35.0999C35.4447 28.6 35.7753 28.463 36.0191 28.2192C36.2629 27.9754 36.3999 27.6447 36.3999 27.2999C36.3999 26.9552 36.2629 26.6245 36.0191 26.3807C35.7753 26.1369 35.4447 26 35.0999 26H22.0999ZM20.7999 32.5C20.7999 32.1552 20.9369 31.8245 21.1807 31.5807C21.4245 31.3369 21.7551 31.2 22.0999 31.2H35.0999C35.4447 31.2 35.7753 31.3369 36.0191 31.5807C36.2629 31.8245 36.3999 32.1552 36.3999 32.5C36.3999 32.8447 36.2629 33.1754 36.0191 33.4192C35.7753 33.663 35.4447 33.7999 35.0999 33.7999H22.0999C21.7551 33.7999 21.4245 33.663 21.1807 33.4192C20.9369 33.1754 20.7999 32.8447 20.7999 32.5ZM22.0999 36.4C21.7551 36.4 21.4245 36.5369 21.1807 36.7807C20.9369 37.0245 20.7999 37.3552 20.7999 37.7C20.7999 38.0447 20.9369 38.3754 21.1807 38.6192C21.4245 38.863 21.7551 39 22.0999 39H35.0999C35.4447 39 35.7753 38.863 36.0191 38.6192C36.2629 38.3754 36.3999 38.0447 36.3999 37.7C36.3999 37.3552 36.2629 37.0245 36.0191 36.7807C35.7753 36.5369 35.4447 36.4 35.0999 36.4H22.0999ZM15.5999 5.19995C14.2208 5.19995 12.8981 5.74781 11.9229 6.723C10.9478 7.69818 10.3999 9.02083 10.3999 10.4V41.5999C10.3999 42.9791 10.9478 44.3017 11.9229 45.2769C12.8981 46.2521 14.2208 46.7999 15.5999 46.7999H36.3999C37.779 46.7999 39.1017 46.2521 40.0769 45.2769C41.052 44.3017 41.5999 42.9791 41.5999 41.5999V19.2764C41.599 18.2424 41.1875 17.251 40.4559 16.5204L30.2795 6.34135C29.5484 5.6107 28.5571 5.20017 27.5235 5.19995H15.5999ZM12.9999 10.4C12.9999 9.71039 13.2738 9.04907 13.7614 8.56147C14.249 8.07388 14.9103 7.79995 15.5999 7.79995H25.9999V16.9C25.9999 17.9343 26.4108 18.9263 27.1422 19.6577C27.8736 20.3891 28.8656 20.8 29.8999 20.8H38.9999V41.5999C38.9999 42.2895 38.726 42.9508 38.2384 43.4384C37.7508 43.926 37.0895 44.2 36.3999 44.2H15.5999C14.9103 44.2 14.249 43.926 13.7614 43.4384C13.2738 42.9508 12.9999 42.2895 12.9999 41.5999V10.4ZM38.4617 18.2H29.8999C29.5551 18.2 29.2245 18.063 28.9807 17.8192C28.7369 17.5754 28.5999 17.2447 28.5999 16.9V8.33815L38.4617 18.2Z" fill="black"/>
</svg>
