<svg width="22" height="22" viewBox="0 0 22 22" fill="none" xmlns="http://www.w3.org/2000/svg">
<path d="M10.9999 7.35453C8.99285 7.35453 7.35496 8.99242 7.35496 10.9994C7.35496 13.0065 8.99285 14.6444 10.9999 14.6444C13.0069 14.6444 14.6448 13.0065 14.6448 10.9994C14.6448 8.99242 13.0069 7.35453 10.9999 7.35453ZM21.9319 10.9994C21.9319 9.49007 21.9456 7.99437 21.8608 6.48773C21.7761 4.73773 21.3768 3.1846 20.0971 1.90491C18.8147 0.622493 17.2643 0.226009 15.5143 0.141243C14.005 0.0564773 12.5093 0.0701493 11.0026 0.0701493C9.49324 0.0701493 7.99754 0.0564773 6.4909 0.141243C4.7409 0.226009 3.18778 0.625227 1.90809 1.90491C0.625667 3.18734 0.229182 4.73773 0.144417 6.48773C0.0596512 7.9971 0.0733231 9.49281 0.0733231 10.9994C0.0733231 12.5061 0.0596512 14.0045 0.144417 15.5112C0.229182 17.2612 0.628401 18.8143 1.90809 20.094C3.19051 21.3764 4.7409 21.7729 6.4909 21.8577C8.00028 21.9424 9.49598 21.9287 11.0026 21.9287C12.512 21.9287 14.0077 21.9424 15.5143 21.8577C17.2643 21.7729 18.8175 21.3737 20.0971 20.094C21.3796 18.8116 21.7761 17.2612 21.8608 15.5112C21.9483 14.0045 21.9319 12.5088 21.9319 10.9994ZM10.9999 16.6076C7.89637 16.6076 5.39168 14.103 5.39168 10.9994C5.39168 7.89593 7.89637 5.39124 10.9999 5.39124C14.1034 5.39124 16.6081 7.89593 16.6081 10.9994C16.6081 14.103 14.1034 16.6076 10.9999 16.6076ZM16.8378 6.47132C16.1132 6.47132 15.528 5.88617 15.528 5.16156C15.528 4.43695 16.1132 3.85179 16.8378 3.85179C17.5624 3.85179 18.1475 4.43695 18.1475 5.16156C18.1478 5.33362 18.114 5.50403 18.0483 5.66304C17.9825 5.82204 17.8861 5.96652 17.7644 6.08818C17.6427 6.20985 17.4983 6.30632 17.3393 6.37206C17.1803 6.43781 17.0098 6.47154 16.8378 6.47132Z" fill="white"/>
</svg>
