<svg width="20" height="20" viewBox="0 0 20 20" fill="none" xmlns="http://www.w3.org/2000/svg">
<g opacity="0.5">
<path d="M10 1.24902C8.1773 1.25117 6.42987 1.97619 5.14102 3.26504C3.85218 4.55389 3.12716 6.30132 3.12501 8.12402C3.12282 9.61354 3.60937 11.0626 4.51001 12.249C4.51001 12.249 4.69751 12.4959 4.72813 12.5315L10 18.749L15.2744 12.5284C15.3019 12.4953 15.49 12.249 15.49 12.249L15.4906 12.2471C16.3908 11.0613 16.8771 9.61285 16.875 8.12402C16.8729 6.30132 16.1478 4.55389 14.859 3.26504C13.5701 1.97619 11.8227 1.25117 10 1.24902V1.24902ZM10 10.624C9.50555 10.624 9.02221 10.4774 8.61108 10.2027C8.19996 9.92799 7.87953 9.53755 7.69031 9.08073C7.50109 8.62392 7.45158 8.12125 7.54804 7.6363C7.64451 7.15135 7.88261 6.70589 8.23224 6.35626C8.58187 6.00663 9.02733 5.76852 9.51228 5.67206C9.99723 5.5756 10.4999 5.62511 10.9567 5.81432C11.4135 6.00354 11.804 6.32398 12.0787 6.7351C12.3534 7.14622 12.5 7.62957 12.5 8.12402C12.4992 8.78681 12.2355 9.42221 11.7669 9.89088C11.2982 10.3595 10.6628 10.6232 10 10.624V10.624Z" fill="white"/>
</g>
</svg>
