<svg width="87" height="88" viewBox="0 0 87 88" fill="none" xmlns="http://www.w3.org/2000/svg">
<path fill-rule="evenodd" clip-rule="evenodd" d="M86.1466 50.2218C85.7651 50.0187 85.0738 49.6677 84.0355 49.2296C84.5665 44.9619 84.43 40.6363 83.6311 36.4115C79.4289 14.0946 58.0597 -0.603524 35.9963 3.64691C15.3184 7.63043 1.25768 26.8633 3.03033 47.6339L0.838905 48.04C-1.14886 26.0567 13.7063 5.65463 35.5804 1.45061C58.8485 -3.03193 81.3794 12.4756 85.811 35.9996C86.6986 40.689 86.812 45.4949 86.1466 50.2218ZM6.93702 48.452C8.02987 48.1619 9.13131 48.4114 9.67343 48.8321C9.72793 50.4684 9.77383 52.07 9.80825 53.628C9.50784 53.3631 9.15664 53.1638 8.77661 53.0425C8.39658 52.9212 7.9959 52.8805 7.59961 52.923C6.23428 53.0999 5.761 54.3997 5.94744 55.6618C6.15683 57.0719 6.74484 57.745 8.73548 59.4741C10.875 61.3256 12.2429 63.9271 12.5647 66.7565C13.0495 70.8763 11.1793 72.4169 8.07002 71.4363C6.90139 71.0509 5.81253 70.4521 4.85747 69.6694C4.84313 68.6771 4.82592 67.6762 4.80871 66.652C5.64131 67.3441 6.59339 67.8743 7.61682 68.2158C9.08542 68.6539 9.69925 67.8967 9.5128 66.5012C9.30055 64.9257 8.46012 63.9393 6.9026 62.5002C4.36698 60.2517 3.17374 58.0931 2.8697 56.216C2.34192 52.9288 3.58392 49.482 6.93702 48.452ZM51.2387 84.5938C58.3955 83.223 65.0544 79.9254 70.5141 75.0484C71.8966 74.7989 73.2304 74.5494 74.4867 74.3086C70.5202 78.4665 65.7725 81.7812 60.5225 84.0583C55.2724 86.3354 49.6256 87.5289 43.9133 87.5689C38.2011 87.6089 32.5385 86.4945 27.2577 84.2912C21.977 82.0879 17.1845 78.84 13.1614 74.738C14.389 74.9353 15.697 75.1384 17.068 75.3415C21.7077 79.3861 27.1904 82.3189 33.1072 83.9209C39.0239 85.523 45.2219 85.753 51.2387 84.5938ZM65.0757 71.8715C66.0079 71.6713 66.7565 70.7922 67.2212 66.9392C67.924 61.1134 68.7816 53.9384 69.4327 46.7112C70.5686 46.9047 71.7025 47.1203 72.8346 47.3582C72.1519 53.7992 71.3172 60.1792 70.603 65.5785C69.7425 71.9614 67.8494 74.709 64.7257 75.3444C61.3439 75.9101 60.2253 73.7922 60.9051 66.7913C61.4788 60.7304 62.1815 53.2102 62.6261 45.6523C63.7734 45.8051 64.9208 45.9704 66.0681 46.1484C65.4945 53.7585 64.6884 61.3194 64.0345 67.357C63.6099 71.2419 64.2266 71.9847 65.0757 71.8715ZM56.6456 70.9112C57.6552 70.8067 58.3666 72.0253 58.2117 73.8125C58.0683 75.5272 57.2795 76.4933 56.1723 76.6268C55.2372 76.7225 54.4513 75.9391 54.5804 74.2042C54.6951 72.533 55.6646 70.9953 56.6456 70.9112ZM49.555 44.4772C49.9308 47.776 50.2492 51.0545 50.5303 54.1995C50.7769 56.6657 50.9863 59.4393 51.1039 62.0331H51.1527C51.4768 59.4858 51.8784 56.7788 52.3 54.0603C52.7647 51.0052 53.215 47.8573 53.6309 44.7238C54.828 44.8109 56.0241 44.9134 57.2193 45.0314C55.6474 52.7663 53.8805 60.7362 52.2455 67.1714C52.0103 71.0736 51.7981 74.4044 51.6891 76.827C50.6737 76.8995 49.6611 76.9604 48.6515 77.0039C48.7289 74.6307 48.8924 71.358 49.0731 67.5137C48.1581 61.0728 47.2144 52.7634 45.8692 44.3554C47.0949 44.3786 48.3235 44.4192 49.555 44.4772ZM43.3336 47.8718C44.8595 50.9965 45.5881 56.4626 45.3959 63.3764C45.2037 70.1278 44.2486 73.6848 42.866 75.3328C41.7875 76.6819 40.2845 77.2041 38.1562 77.1026C37.3144 77.0574 36.4788 76.9311 35.6607 76.7254C35.5087 70.7777 35.6062 58.4906 34.9092 45.1387C35.9577 44.5317 37.1431 44.2079 38.3512 44.1987C40.5828 44.1262 42.1776 45.365 43.3336 47.8718ZM39.1716 50.6309C38.936 50.6019 38.6987 50.6687 38.5119 50.8166C38.727 60.066 38.6381 68.2971 38.6409 73.737C38.811 73.8032 38.9923 73.8347 39.1744 73.8299C40.6287 73.7603 41.9481 72.1616 42.0858 63.095C42.1833 55.7343 41.1938 50.5352 39.1716 50.6193V50.6309ZM28.5329 44.9704C29.663 44.8621 30.796 44.7654 31.9319 44.6803C32.4596 52.7692 32.6834 60.7914 32.8354 67.1394C32.9989 74.6162 31.5762 76.5658 28.6361 76.238C25.3977 75.7245 23.9521 73.1539 23.519 66.3416C23.1289 60.4229 22.6212 53.1348 21.8639 45.7654C22.9769 45.6087 24.0946 45.4637 25.217 45.3302C25.9485 53.3901 26.3644 61.3658 26.6971 67.6124C26.9008 71.6133 27.6236 72.5736 28.4382 72.7245C29.3188 72.7912 29.9154 72.1239 29.7605 67.917C29.511 61.5283 29.184 53.2943 28.5329 44.9704ZM16.8099 73.7545C16.2362 68.5988 15.5507 60.9886 14.5898 52.804C13.6088 52.8833 12.6288 52.9655 11.6497 53.0506C11.426 51.3098 11.1879 49.5313 10.9384 47.7499C13.998 47.071 17.0862 46.4907 20.2032 46.0091C20.4355 48.1619 20.6506 50.2799 20.8399 52.3688C19.8398 52.4288 18.8416 52.4936 17.8454 52.5632C18.7546 61.2672 19.3541 69.3067 19.8532 74.4595C18.8416 74.239 17.8272 74.004 16.8099 73.7545ZM75.0375 38.0682C75.5595 40.8396 75.7205 43.6683 75.5165 46.482L74.7592 46.2992C75.0767 41.6661 74.3804 37.0191 72.7198 32.6891C72.9283 33.2501 73.1195 33.8178 73.2935 34.3922C73.0564 34.4551 72.8076 34.4575 72.5693 34.3993C72.331 34.341 72.1108 34.224 71.9282 34.0586C71.6958 33.8729 71.5553 32.8545 71.1279 33.1882C70.9644 33.2897 70.9787 33.2462 70.8898 33.4522C70.8697 33.5363 70.8267 33.4841 70.8898 33.5392C70.9931 34.0412 71.3774 34.5721 71.9282 34.5953C71.9499 34.7997 71.9499 35.006 71.9282 35.2104H72.0888C72.585 35.5789 73.064 35.0218 73.3853 34.7172C73.6004 35.4483 73.7926 36.191 73.959 36.9425C73.9424 37.0383 73.9337 37.1353 73.9332 37.2326H73.6922C73.4398 37.6736 73.196 37.5866 73.1185 38.0247L72.238 38.1117C72.2093 38.2945 72.2179 38.28 72.1576 38.3757C71.8708 38.6659 69.8916 39.3274 69.4384 39.3448V39.6088C69.252 39.6262 69.2118 39.6262 69.1172 39.6958C69.6048 39.7568 69.513 39.986 69.9978 40.0498C70.2846 39.7916 71.1193 39.6842 71.8393 39.6958C71.8393 41.28 71.0418 41.8109 70.2387 42.513C70.0265 42.6987 69.9519 43.0933 69.7568 43.308C69.273 43.854 68.8228 44.4296 68.4087 45.0314C65.4486 44.5352 62.0983 44.0971 58.292 43.7693C58.4555 43.3414 58.4914 42.8743 58.3953 42.426C58.2655 42.3707 58.1541 42.2791 58.074 42.162L57.1131 42.3389C56.9726 41.9676 56.8951 41.631 56.4735 41.5469C55.8797 41.2568 55.0766 41.9705 54.632 42.162C53.6596 41.8718 53.4847 42.1939 52.4721 42.249C52.0849 41.8921 51.2932 41.5759 51.038 41.1059C50.9232 40.8999 50.9978 40.6765 50.8773 40.4879C50.6622 40.1484 50.3467 40.131 50.2377 39.6175H49.9967C49.8761 39.4509 49.7695 39.2743 49.6784 39.0895C49.8906 38.75 49.6784 38.8458 49.598 38.3844C49.8733 38.0898 50.1148 37.7648 50.318 37.4154C50.1334 36.9928 49.9986 36.5497 49.9164 36.0953C50.1861 35.8255 50.1775 35.4628 50.3983 35.1263C50.5217 34.9348 50.7999 34.9319 50.9576 34.7752C51.1154 34.6185 51.0179 34.2762 51.038 34.2472C51.058 34.2181 52.2484 33.4174 52.3172 33.3768C52.0132 32.4541 52.6586 32.4396 53.1978 31.9696C53.3491 31.7452 53.4833 31.5095 53.5994 31.2646C53.3642 31.0615 53.4129 30.9077 53.0257 30.8236C52.8622 30.928 52.6959 30.8758 52.4664 30.9106C52.5983 30.458 52.257 30.3304 52.3058 30.0402C52.7676 29.6312 52.5926 29.0277 52.3861 28.6302C53.2609 28.2733 54.2735 28.578 55.0278 28.6302C55.1053 28.3952 55.1311 28.4793 55.1885 28.1921C54.8557 27.8671 55.0995 27.6118 55.0278 27.4871C54.8729 27.2202 54.7008 27.4145 54.6263 26.959L53.9235 26.843C53.8748 26.6892 53.9092 26.7588 53.8432 26.6689C53.9178 26.5732 53.8432 26.6689 53.9235 26.579C54.1931 26.402 54.6492 26.5267 54.8844 26.4919C54.8844 26.2018 54.7697 26.3265 55.045 26.2279C55.3175 26.3904 55.4552 26.1118 55.8453 26.0509V25.6999C56.68 25.6767 56.5481 25.3459 56.964 24.9948C57.007 24.96 57.6036 24.7395 57.8446 24.6438C57.9526 24.7666 58.0913 24.8578 58.2461 24.9078V24.5538C58.0912 24.3914 58.0167 24.2927 58.0855 24.1157C58.2456 23.8516 58.5022 23.6618 58.7997 23.5877C58.8714 23.6805 58.7997 23.5877 58.88 23.6747C58.86 23.9649 58.88 23.8111 58.9603 24.1157C58.6993 24.1883 58.837 24.0722 58.7194 24.2898C58.9489 24.3885 58.8686 24.3072 58.9603 24.5538H58.7997C58.729 24.4833 58.6477 24.4245 58.5588 24.3798V24.5538L58.7997 24.7308C58.9546 24.8614 59.0435 24.8382 59.4394 24.8179C59.5455 24.5277 59.5512 24.4059 59.8409 24.2898C59.8937 24.45 59.9743 24.5994 60.079 24.7308C60.2999 24.5509 60.885 24.1215 61.3612 24.2898C61.4587 24.3246 61.4874 24.5567 61.7599 24.4668C61.8574 24.4349 61.9721 24.3043 61.8402 24.2028C62.0151 24.1331 62.2016 24.1651 62.3221 24.1157C62.1614 23.5935 62.3852 23.5181 62.6404 23.2453C62.8957 23.3904 62.9502 23.5355 63.2801 23.5993C63.2779 23.4191 63.305 23.2397 63.3604 23.0684C63.0449 23.0045 63.1051 23.0684 63.042 22.7173H63.1998C63.8251 22.2966 64.4791 22.9088 65.1216 22.4533C64.066 22.3053 63.1682 22.4011 62.3995 22.2763C62.4475 21.9764 62.3918 21.669 62.2417 21.4059C62.7265 21.2115 63.1022 20.8053 63.6013 20.7009V20.4369C63.1992 20.3784 62.7893 20.4081 62.3995 20.5239C62.3307 20.7357 62.3393 20.8518 62.1614 20.9649C61.8328 21.1621 61.4883 21.331 61.1317 21.4697L61.0514 22.0877C61.1568 22.124 61.2539 22.1815 61.3367 22.2568C61.4195 22.3321 61.4864 22.4236 61.5333 22.5258C61.3439 22.6245 61.3898 22.61 61.2923 22.7898C60.9625 22.7898 60.7932 22.8653 60.8133 23.4949C60.8764 23.5848 60.8391 23.521 60.8907 23.6718C60.4375 23.7357 59.8352 24.0983 59.6918 24.0229C59.6918 24.0229 58.9288 22.8624 58.8915 22.7898C58.1773 23.3701 57.7442 23.4513 57.05 22.8798C57.1791 22.4533 57.0271 21.992 57.05 21.6467C57.3002 21.5904 57.5422 21.5017 57.77 21.3827C57.9163 21.2666 57.7356 21.2376 58.0912 21.2057C58.3751 21.0397 58.6692 20.8924 58.9718 20.7647C59.0093 20.8617 59.0637 20.9512 59.1325 21.0287C59.1403 20.9081 59.1674 20.7895 59.2128 20.6777L59.4508 20.7647C59.4508 20.5587 60.1192 20.0481 60.4117 19.8943V19.8073C60.2253 19.7899 60.1851 19.7899 60.0905 19.7173H60.2511C60.4433 19.3634 60.7014 19.6071 61.0514 19.6303C60.9825 19.4968 60.8248 19.5636 60.9711 19.4533C61.3698 19.0674 61.9176 19.0732 62.5343 19.0326C60.066 17.1274 57.3325 15.6022 54.4226 14.5066H54.3308C53.5248 14.6081 52.9483 13.993 52.2484 14.3296C51.9616 14.4775 50.5675 13.9988 50.4098 14.1526C50.3209 14.0801 50.2864 13.9524 50.0885 13.8886C49.7329 13.7783 49.2022 13.9727 48.9699 13.9785L48.6486 13.8015C48.0176 13.6884 46.6408 13.9263 46.0069 13.9785C45.2668 14.0365 44.5727 13.7116 43.6061 13.9785C42.7255 14.2164 41.8678 13.906 41.3659 14.2425C43.4712 14.495 45.2955 14.4514 47.6762 14.4166V14.5066H47.6131C47.4611 14.5733 47.7738 14.5936 47.7738 14.5936C48.0606 14.4311 48.3474 14.5791 48.574 14.6806C48.5138 14.759 48.4736 14.7822 48.4134 14.8576H48.8953C49.2865 14.7402 49.703 14.7402 50.0943 14.8576V14.9447C49.9279 14.9795 49.9394 14.9679 49.8533 15.0346C50.6077 15.0172 51.015 14.7445 51.3736 15.0346C51.0552 15.0868 49.6956 15.6671 49.4489 16.0152H49.3686V16.1023C49.6113 16.0999 49.8532 16.1292 50.0885 16.1893C50.0168 16.2851 50.0885 16.1893 50.0082 16.2793V16.3663C49.9071 16.321 49.7997 16.2917 49.6898 16.2793V16.5375C49.5142 16.5379 49.3441 16.5994 49.2079 16.7116C49.4249 16.7005 49.6419 16.731 49.8476 16.8015C49.598 17.6197 49.4661 17.3412 49.0473 17.6719C49.1821 17.8054 49.1305 17.7357 49.1276 17.8489C48.9154 18.0056 48.6716 17.8924 48.4077 17.8489V17.9359H48.5683C48.6486 17.9969 48.8896 18.0491 48.9699 18.1129C48.8781 18.1506 48.5912 18.2145 48.8092 18.2899C48.9075 18.3615 49.0145 18.42 49.1276 18.464V18.6409H48.8092C48.7312 18.5226 48.6233 18.4277 48.4967 18.3659C48.37 18.3042 48.2294 18.2779 48.0893 18.2899C48.0577 18.5191 48.1467 18.403 47.9287 18.464V18.728L48.5683 18.992C48.488 19.0645 48.5454 19.0239 48.4077 19.0819C47.9889 19.3721 47.0108 19.4243 46.6465 19.5229C46.4027 19.5868 46.1417 19.3721 46.0069 19.433C45.5278 19.6477 45.0316 20.199 44.4063 20.402C43.8327 20.5848 43.4397 20.4398 43.0467 20.7531C43.3766 21.1883 42.6738 21.3102 42.4731 21.8121C42.3813 22.0558 42.6968 22.3053 42.4731 22.5142H41.8994C41.6125 22.6303 41.6699 22.4069 41.3401 22.2502C41.1068 22.1688 40.8533 22.1688 40.6201 22.2502C40.5943 22.1632 40.5656 22.0761 40.5398 21.9862L40.2988 22.0761C39.7596 21.7163 39.6018 21.1883 39.1802 20.9156C39.2777 20.4717 38.9565 20.3353 39.0196 19.9465C38.7327 19.9117 38.8188 19.9901 38.6983 19.7725C38.7643 19.6825 38.727 19.7463 38.7786 19.5955C38.9823 19.5404 39.4785 19.3402 39.5789 19.1545C39.599 19.0703 39.642 19.1226 39.5789 19.0674C39.4555 18.905 39.51 18.9427 39.2605 18.8905C39.0769 19.3053 38.5463 19.0994 38.4602 18.9775H38.3799C38.4057 18.8905 38.4344 18.8034 38.4602 18.7135C38.6237 18.6496 38.6553 18.5307 38.7786 18.2754H38.6209C38.4401 18.3972 38.357 18.3218 38.139 18.2754C38.1849 17.9156 38.0615 17.9446 38.2193 17.8344L38.2996 17.6574H38.0587C37.9353 17.7676 38.0185 17.7154 37.9009 17.6574C37.5478 17.5005 37.2633 17.219 37.1006 16.8653C36.6646 16.9495 36.6187 16.7899 36.3004 16.6884L35.3395 16.8653L34.8576 16.6884C34.3155 16.5955 34.195 16.906 33.7389 16.4243C33.6141 16.5024 33.4789 16.562 33.3373 16.6013C33.3115 16.5143 33.2857 16.4243 33.257 16.3373C33.4435 16.3199 33.4836 16.3199 33.5783 16.2503C33.0792 16.2009 32.9386 15.9282 32.6174 15.8093C32.3506 15.7106 32.1527 15.9543 31.9777 15.9862L31.4987 15.8963L31.3381 16.1603C30.7913 16.5138 30.1421 16.6693 29.4966 16.6013V16.7783C29.747 16.7766 29.994 16.8363 30.2166 16.9524V17.1294C29.2802 17.1132 28.3441 17.1724 27.4171 17.3063C27.305 17.3257 27.1906 17.3257 27.0786 17.3063C26.8807 17.434 26.6856 17.5675 26.5049 17.698C26.8663 17.55 27.9621 17.2541 28.312 17.4079C28.4325 17.4601 28.4841 17.6603 28.791 17.5849C30.6669 17.1148 31.2291 18.0984 33.0333 18.1999C33.0476 18.0781 32.9673 18.2377 32.953 18.1129C32.7981 18.0433 33.1136 18.0259 33.1136 18.0259C33.307 18.0375 33.499 18.0666 33.6873 18.1129C33.6643 17.8953 33.6328 18.0694 33.6873 17.8489C34.3212 18.2261 35.2677 17.5588 36.0078 18.1999C36.2745 18.7019 36.0078 18.7802 36.5815 19.256C36.4581 19.6767 36.5499 19.8363 36.5011 20.4166C36.2459 20.4427 36.1799 20.434 36.1024 20.5036C35.9324 20.6397 35.7714 20.787 35.6206 20.9446C35.3234 20.8732 35.0303 20.785 34.7428 20.6806V20.7676C34.877 20.8562 34.9866 20.9781 35.0612 21.1216C34.8197 21.2648 34.5395 21.3267 34.261 21.2986C34.1807 21.2087 34.0817 21.138 33.971 21.0918C33.8603 21.0457 33.7409 21.0251 33.6213 21.0316V21.1216H33.7819C34.0143 21.4117 34.3126 21.2957 34.4216 21.7367H34.3413C34.0774 21.4465 33.432 21.4639 32.9817 21.5626C32.8755 21.3305 32.7895 21.4581 32.6604 21.2986C32.0867 20.5645 31.645 21.0461 30.5809 20.8576V20.7676C30.6463 20.7221 30.7011 20.6627 30.7415 20.5935H30.099C29.7265 20.6182 29.3528 20.6182 28.9803 20.5935V20.6806H29.1409C29.3692 20.8208 29.6103 20.9383 29.8609 21.0316V21.2086H29.7003C29.5827 21.2434 28.9631 20.9533 28.9 21.0316C28.6419 21.2028 28.5787 21.3392 28.18 21.3856C28.1514 21.2028 28.16 21.2144 28.0997 21.1216C27.9526 21.1993 27.7854 21.2297 27.6207 21.2086V21.1216C27.9276 20.9388 27.9592 20.6835 28.0997 20.3295H27.9391C27.3454 21.4001 25.2314 21.1419 25.2199 22.7927C25.3031 22.8276 25.5727 22.8101 25.6989 22.8827C25.9858 23.0423 25.8596 23.373 26.2583 23.4978C26.5151 23.3939 26.8016 23.3939 27.0585 23.4978C27.4429 23.6312 27.8444 23.9881 28.2604 24.1157C28.834 24.2927 29.0233 24.1157 29.379 24.2898C29.3267 24.5211 29.2998 24.7576 29.2987 24.9948C29.5339 24.9194 29.6343 24.8208 29.7806 25.0848C29.5941 25.0993 29.554 25.0993 29.4593 25.1718H29.5396C29.6851 25.3654 29.8779 25.5174 30.099 25.6128C30.2596 25.3807 30.3485 25.4503 30.4202 25.0848C30.2851 24.8323 30.1774 24.5657 30.099 24.2898C30.5493 24.2898 30.9165 24.1157 31.0599 23.7618C31.1258 23.6573 31.123 23.6138 31.1402 23.4107C30.8994 23.2719 30.6833 23.0934 30.5005 22.8827C30.6165 22.7732 30.7239 22.6549 30.8218 22.5287C30.7631 22.2329 30.6826 21.942 30.5809 21.6583C30.6705 21.6135 30.752 21.5537 30.8218 21.4813L31.7798 21.6583C31.886 21.6583 31.9806 21.5075 32.1814 21.5713C32.8669 21.7802 32.5715 22.0819 33.3804 22.0094C33.3101 22.2092 33.3101 22.4275 33.3804 22.6274C33.5513 22.7549 33.7467 22.8448 33.954 22.8914C34.3986 22.9494 34.5449 22.3662 34.9924 22.1864C35.0096 22.2328 36.3204 24.0113 36.3549 24.0345C36.7507 24.3246 37.0891 23.9417 37.3129 24.3885H37.2326C37.1551 24.4755 37.3129 24.4755 37.3129 24.4755C37.6886 24.7366 37.8062 24.5393 37.7948 25.2676C37.6542 25.3227 37.7173 25.285 37.6341 25.3575C37.8206 25.3575 37.8607 25.3575 37.9554 25.4445C37.8042 25.5527 37.6915 25.7074 37.6341 25.8855C37.8751 26.0016 37.7976 26.0741 38.1132 26.1496C38.183 26.0772 38.2645 26.0174 38.3541 25.9726C38.4284 26.2806 38.5958 26.5575 38.8331 26.7646C38.727 27.0316 38.7356 27.1215 38.4344 27.2056C38.1476 26.8575 38.1304 27.0258 37.7145 27.1186C37.7145 26.7879 37.8091 26.901 37.4735 26.8517C37.1803 26.8714 36.8861 26.8714 36.5929 26.8517C36.6905 26.2018 37.2039 26.0248 37.3932 25.4445H37.1551C36.8024 25.7159 36.3901 25.8971 35.9533 25.9726C35.7037 26.0074 35.3366 25.7898 35.0727 25.9726C35.4599 25.9726 35.741 26.048 35.873 26.3236H35.632C35.2173 26.0165 34.7113 25.8619 34.1979 25.8855C34.02 26.0944 33.7303 26.196 33.5582 26.4136H33.4779V26.5006H33.6385C33.9254 26.2105 34.7543 25.9204 34.9981 26.4136H35.0784C35.1588 26.5006 35.001 26.5006 34.9981 26.5006C34.9379 26.5616 34.8203 26.6167 34.76 26.6776C34.9121 26.7646 34.9207 27.0403 34.9981 27.2927H35.0784C35.0707 27.1702 35.0986 27.0482 35.1587 26.9416C35.3309 27.1331 35.6607 27.0577 35.7984 27.2927C35.7328 27.3392 35.678 27.3996 35.6378 27.4697H35.7984C35.933 27.3199 36.0972 27.2003 36.2803 27.1186C36.352 27.3304 36.3635 27.2579 36.438 27.4697C35.7238 27.5393 35.1186 28.1225 34.5191 28.3401C34.4315 28.2092 34.3765 28.0589 34.3585 27.902C34.5168 27.8596 34.6575 27.7671 34.76 27.6379C34.0171 27.6902 32.9989 28.1196 33.0792 29.1321C32.5055 29.1669 32.3994 29.3903 32.038 29.4861C31.8771 29.8679 31.6616 30.2237 31.3983 30.5422V30.6292H31.318C31.3352 30.3391 31.4901 30.4203 31.2377 30.2781V30.6292H31.1574C31.08 30.7191 31.2377 30.7162 31.2377 30.7191C31.3022 30.8465 31.3833 30.9645 31.4787 31.0702C31.427 31.224 31.4614 31.1572 31.3983 31.2472C31.2721 31.3777 31.2521 31.3139 31.1574 31.5112H31.2377V31.5982C30.664 31.6157 29.6028 32.4048 29.5569 33.1853C29.9026 33.7003 30.0458 34.3273 29.9584 34.9435H29.6372C29.4797 34.587 29.2634 34.2603 28.9975 33.9773C29.0672 33.8676 29.1213 33.7484 29.1582 33.6234C28.9086 33.4435 28.9229 33.3332 28.5156 33.2723C28.2288 33.4435 28.18 33.1447 27.942 33.0953C27.6551 33.0286 27.2249 33.1737 26.743 33.1853V33.2723C26.9409 33.3855 26.7975 33.2346 26.9036 33.4493H26.5623C26.3386 33.5682 25.8825 33.4058 25.6817 33.2723C25.3146 33.31 24.2963 33.87 24.2475 34.1427C24.2303 34.3284 24.4512 34.6533 24.4082 34.8477L24.1672 34.9348V36.0953C24.259 36.5247 24.6118 36.7423 24.7409 37.2558C25.174 37.3052 25.1109 37.4589 25.5412 37.5198C25.7678 37.3168 25.9685 37.3632 26.2611 37.4299C26.3185 37.221 26.5738 36.5595 26.743 36.4609C27.0375 36.306 27.3716 36.2453 27.701 36.2868C27.751 36.4275 27.7781 36.5754 27.7813 36.7249C27.4314 36.9048 27.5605 37.1572 27.701 37.4299C27.3368 37.5344 27.2335 37.8593 26.9036 38.0479V38.1349H28.3378C28.4812 38.3641 28.5816 38.3351 28.6562 38.663C28.6992 38.8516 28.4411 39.5711 28.5759 39.896C28.6171 40.0707 28.7067 40.2298 28.8342 40.3547C28.9618 40.4796 29.1219 40.5651 29.2958 40.6011C29.4106 40.6011 29.9068 40.2268 30.337 40.4241L30.578 40.7751C30.7243 40.8244 30.6985 40.7055 30.7386 40.6881C31.1803 40.514 31.0255 40.0121 31.3783 39.8177C31.7311 39.6233 32.0925 39.7974 32.4195 39.2897L32.6575 39.3767V39.6407C32.474 39.7597 32.5113 39.7481 32.4969 39.8177V39.9047C32.6245 39.8322 32.7591 39.7729 32.8985 39.7278C32.8985 39.4985 32.8985 39.5885 32.9788 39.2897H33.0591C33.105 39.6639 33.5238 39.9628 33.7791 40.0817C34.0659 39.8902 34.4015 40.1368 34.8174 40.1688V39.8177C35.0498 39.8583 34.9666 39.9454 35.0584 39.9918C35.2713 39.9771 35.485 39.9771 35.698 39.9918C35.7152 40.1165 35.632 39.957 35.6177 40.0817C35.4657 40.1484 35.7783 40.1688 35.7783 40.1688C35.8443 39.8786 35.741 40.0353 35.9389 39.9047C36.0107 40.0005 35.9389 39.9047 36.0193 39.9918C35.9648 40.3515 35.8873 40.5169 36.0193 40.6098C36.3061 40.8999 36.8339 41.5237 37.2182 41.6658C37.4626 41.6941 37.7101 41.6643 37.9411 41.5788C38.6926 41.4569 39.2978 42.1591 39.3007 42.9859C39.3998 43.0597 39.4764 43.1603 39.5215 43.2761C36.2315 43.3863 32.821 43.6213 29.4278 43.9376C29.4574 43.8543 29.4938 43.7738 29.5368 43.6968C29.6314 43.5343 29.9154 43.5691 30.0187 43.4327L30.0961 42.9047C30.208 42.7335 30.3829 42.8583 30.4977 42.6407C30.5815 42.265 30.6086 41.8786 30.578 41.4947C30.5562 41.3026 30.4748 41.1224 30.3455 40.9801C30.2161 40.8378 30.0454 40.7406 29.858 40.7026C29.7875 40.7741 29.7061 40.8338 29.6171 40.8796C29.6171 41.2248 29.7978 41.1088 29.4565 41.2306C29.25 41.0681 28.998 40.9757 28.7365 40.9666C28.6361 40.8767 28.6677 40.6243 28.5759 40.5256C28.4038 40.3399 28.0682 40.3893 27.9362 40.3515C27.7383 39.6552 27.4687 39.1185 26.8176 39.1185C26.5107 38.8864 26.0058 38.9212 25.6961 38.6775C25.5067 38.5295 25.3863 38.1494 25.1224 38.0624L24.1615 38.2365C23.2082 37.9827 22.3295 37.5 21.6 36.8293C21.6545 36.6524 21.7062 36.4754 21.7607 36.3013C21.5369 36.0953 21.4738 35.7587 21.2817 35.5092C21.035 35.1785 20.5703 35.0392 20.3208 34.7143C20.3862 34.6688 20.441 34.6094 20.4814 34.5402C20.1946 34.4503 20.0626 34.3748 19.9995 34.0121H19.7614C19.6553 33.8236 19.1878 32.9561 19.0386 32.8516C18.9184 32.78 18.7786 32.7494 18.6399 32.7646V32.9387C18.8118 33.1621 19.0039 33.369 19.2136 33.5566C19.1103 33.606 19.1562 33.5566 19.1333 33.6437C19.4029 34.0702 19.9135 34.5344 20.0138 35.3177H20.2548C20.3429 35.4494 20.398 35.6007 20.4154 35.7587C20.3294 35.8371 20.4154 35.7587 20.3351 35.8458H20.1745C20.1109 35.6833 20.0138 35.5364 19.8896 35.4148C19.7655 35.2932 19.6171 35.1998 19.4545 35.1408C19.4861 34.8942 19.552 34.8912 19.4545 34.6998C19.2033 34.4599 18.9025 34.2795 18.5739 34.1717V34.0847H18.6428C18.7134 34.0132 18.7947 33.9535 18.8837 33.9077V33.8207H18.8034C18.6772 33.4783 18.4965 33.6089 18.3215 33.3797C18.0576 33.0315 18.0691 32.3555 17.7622 32.0596C17.504 31.81 17.0881 31.8971 16.8013 31.7085C16.8013 31.7085 16.2735 30.9658 16.2276 30.9135C16.3682 30.8584 16.3051 30.9135 16.3882 30.8265C16.2285 30.7454 16.0866 30.6323 15.9713 30.4942C15.8559 30.3561 15.7694 30.1957 15.7171 30.0228C13.2496 34.9841 12.1253 40.5179 12.4586 46.0613L11.6985 46.1803C11.1522 37.9504 13.7352 29.8203 18.919 23.4529C24.1029 17.0855 31.496 12.9621 39.5861 11.9259C47.6763 10.8897 55.8521 13.0191 62.4414 17.8785C69.0308 22.738 73.5356 29.9603 75.0346 38.0682H75.0375ZM74.0307 73.0233C72.9732 73.3019 71.9215 73.5668 70.8755 73.8183C72.8833 67.2903 75.571 57.6028 78.0464 48.4984C79.3849 48.8176 80.7235 49.1541 82.0621 49.5081C81.8641 57.9742 81.7752 64.8126 81.8727 70.7139C80.7732 71.0717 79.6823 71.4131 78.6 71.738C78.577 70.386 78.5684 68.9673 78.5741 67.4644C77.5358 67.7274 76.5041 67.9799 75.4792 68.2216C74.96 69.9218 74.481 71.532 74.0278 73.0233H74.0307ZM78.7635 64.2932C78.8208 62.7788 78.8877 61.1937 78.9642 59.538C79.013 58.0873 79.1736 55.5458 79.274 53.8398H79.1966C78.7635 55.5487 78.1123 58.1657 77.7108 59.6424C77.2404 61.3832 76.7671 63.1008 76.3053 64.772C77.1228 64.6037 77.9402 64.4528 78.7635 64.2932Z" fill="white"/>
<path d="M5.16532 36.3131L8.39222 36.374L5.45216 35.0539L5.63573 34.2038L10.1046 36.3682C10.9651 36.7889 11.252 37.1051 11.1717 37.4852C11.139 37.6487 11.0682 37.8018 10.9651 37.932L10.1046 37.7434C10.1559 37.6857 10.194 37.6174 10.2165 37.5432C10.248 37.3895 10.1362 37.2531 9.82353 37.0935L4.97314 37.1835L5.16532 36.3131Z" fill="white"/>
<path d="M8.7936 32.6543L6.65955 30.8931L6.94638 30.0431L9.04888 31.897L12.597 31.9724L12.3102 32.8109L9.83768 32.6862L10.2909 33.1765L11.9861 33.7568L11.7337 34.5256L6.09448 32.5643L6.34977 31.8129L8.7936 32.6543Z" fill="white"/>
<path d="M13.363 30.2317L13.0245 30.9512L7.64062 28.34L8.28027 26.9851C8.5671 26.37 9.45629 26.3294 10.3225 26.7472C11.1888 27.165 11.7567 27.9077 11.4699 28.5315L11.183 29.1611L13.363 30.2317ZM10.3742 28.781L10.5434 28.4328C10.7126 28.0702 10.5061 27.7539 9.99268 27.5044C9.47924 27.2549 9.13217 27.3013 8.94859 27.664L8.77649 28.0238L10.3742 28.781Z" fill="white"/>
<path d="M9.93164 23.8897L10.4824 22.9816L16.0642 25.3433L15.6052 26.0773L14.1711 25.4245L13.7064 26.1905L14.9168 27.2233L14.4751 27.9516L9.93164 23.8897ZM13.3737 25.0503L10.8438 23.8433L13.0123 25.6392L13.3737 25.0503Z" fill="white"/>
<path d="M10.4841 20.4167L10.857 19.906L11.5798 20.4486L11.207 20.9563L10.4841 20.4167ZM11.1123 19.5463L11.4737 19.0501L12.1965 19.5927L11.8237 20.1004L11.1123 19.5463ZM17.1358 23.846L16.6683 24.4843L11.8839 20.9041L12.3514 20.2629L17.1358 23.846Z" fill="white"/>
<path d="M15.7068 19.758L16.3952 18.9746L14.6742 17.4311L15.202 16.8276L19.6594 20.846L19.1373 21.4407L17.075 19.5839L16.3837 20.3701L18.4461 22.2241L17.924 22.8189L13.481 18.8092L14.003 18.229L15.7068 19.758Z" fill="white"/>
<path d="M19.1395 15.763L19.0506 15.6673C18.5515 15.1015 18.2819 14.9971 18.0323 15.2234C17.7828 15.4497 17.8487 15.7369 18.3507 16.3027L19.9226 18.0783C20.4389 18.6586 20.7142 18.763 20.9609 18.5396C21.2076 18.3162 21.1359 18.0232 20.6224 17.4429L20.4073 17.1992L20.981 16.6712L21.1531 16.8626C21.8759 17.6779 22.3004 18.557 21.5604 19.2214C20.8204 19.8858 19.9828 19.3781 19.2657 18.5831L17.8315 16.9439C16.8993 15.8907 16.7903 15.1073 17.4271 14.53C18.0639 13.9526 18.7867 14.1847 19.5181 15.0145L19.716 15.2379L19.1395 15.763Z" fill="white"/>
<path d="M21.8907 14.0018L22.427 13.6159C22.952 13.2387 23.8182 13.7523 24.3087 14.4486C24.9741 15.3944 25.1204 16.2329 24.6099 16.5985L23.3765 17.4863L19.9172 12.554L20.5569 12.0956L21.8907 14.0018ZM23.5228 16.3228L23.8928 16.0559C24.1308 15.8847 24.1194 15.5743 23.7293 15.023C23.3908 14.5414 23.0237 14.3122 22.7856 14.4834L22.4156 14.7474L23.5228 16.3228Z" fill="white"/>
<path d="M25.5071 11.9824L25.0883 9.22906L25.8685 8.79386L26.2013 11.6052L28.7828 14.0656L28.0169 14.495L26.2615 12.7281V13.3983L27.122 14.9824L26.4336 15.3683L23.5681 10.0791L24.2565 9.69327L25.5071 11.9824Z" fill="white"/>
<path d="M28.2239 7.70303L29.1991 7.29395L32.3256 12.5163L31.5512 12.8413L30.7796 11.466L29.9564 11.8113L30.312 13.3461L29.5433 13.6827L28.2239 7.70303ZM30.3407 10.6769L28.9897 8.20496L29.6982 10.9467L30.3407 10.6769Z" fill="white"/>
<path d="M35.338 5.30374C36.1182 5.13546 36.7492 5.53585 37.059 7.04453L37.5151 9.18281C37.8363 10.6857 37.4175 11.2805 36.6373 11.4516C35.8572 11.6228 35.2032 11.2398 34.8963 9.75437L34.4402 7.61609C34.1362 6.12482 34.5693 5.47202 35.338 5.30374ZM35.2089 7.30855L35.7223 9.71665C35.8543 10.3288 36.0924 10.6277 36.4566 10.5464C36.8209 10.4652 36.9041 10.1083 36.7722 9.48745L36.2616 7.09386C36.1268 6.46717 35.86 6.13062 35.5302 6.20315C35.2003 6.27568 35.0741 6.67317 35.2089 7.30855Z" fill="white"/>
<path d="M40.445 6.61234V6.47888C40.3704 5.72164 40.2126 5.47793 39.8713 5.51274C39.53 5.54756 39.4238 5.81738 39.5013 6.57463L39.7365 8.94501C39.8139 9.72546 39.9774 9.96917 40.3101 9.93436C40.6429 9.89954 40.7519 9.62101 40.6744 8.84926L40.6429 8.52431L41.4231 8.44308L41.4489 8.70129C41.5579 9.79219 41.3829 10.7496 40.4077 10.8483C39.3808 10.9527 39.0423 10.0388 38.9362 8.97402L38.7182 6.78932C38.5777 5.38218 38.9448 4.68296 39.7967 4.59592C40.5941 4.51469 41.0932 5.12687 41.2051 6.23227L41.2338 6.5224L40.445 6.61234Z" fill="white"/>
<path d="M42.9148 4.4942H44.3662C45.0948 4.4942 45.3788 5.20792 45.373 5.97677C45.373 6.55704 45.1464 7.19533 44.7993 7.29107C45.2038 7.53769 45.4046 7.96708 45.396 8.74174C45.396 9.78621 45.069 10.5261 44.4322 10.5173L42.8489 10.5028L42.9148 4.4942ZM43.6463 9.67596H44.1511C44.4379 9.67596 44.59 9.42065 44.5957 8.74464C44.5957 8.14987 44.4638 7.81331 44.1712 7.81041H43.6664L43.6463 9.67596ZM43.675 6.95162H44.088C44.4322 6.95162 44.5785 6.66149 44.5842 6.13925C44.59 5.61701 44.4724 5.3675 44.1167 5.36459H43.6922L43.675 6.95162Z" fill="white"/>
<path d="M47.3744 10.7349L46.5942 10.6595L47.1679 4.65376L47.951 4.73209L47.3744 10.7349Z" fill="white"/>
<path d="M50.2113 11.1817L49.4369 11.0366L50.3662 6.00863L49.4082 5.82875L49.5746 4.92354L52.2651 5.43127L52.0987 6.33648L51.1407 6.1537L50.2113 11.1817Z" fill="white"/>
<path d="M54.0339 8.31232L55.0263 8.62276L55.7032 6.40035L56.4547 6.63536L54.7022 12.4032L53.9507 12.1682L54.7596 9.49896L53.7671 9.19142L52.9582 11.8606L52.2039 11.6256L53.9535 5.8578L54.7051 6.09281L54.0339 8.31232Z" fill="white"/>
<path d="M58.1179 11.1557L56.5059 13.117L55.7085 12.7659L57.4725 10.735C57.2058 10.3259 57.2431 9.62958 57.5471 8.93327C57.9315 8.04836 58.6084 7.48261 59.2222 7.75243L60.6105 8.36751L58.2154 13.88L57.4955 13.5609L58.4707 11.3124L58.1179 11.1557ZM59.5349 8.85493L59.1735 8.70406C58.8121 8.54449 58.4994 8.75338 58.2757 9.28433C58.0519 9.81527 58.1007 10.1924 58.4621 10.352L58.8264 10.5145L59.5349 8.85493Z" fill="white"/>
<path d="M63.7197 13.1372L65.9513 11.5008L66.6913 11.9999L64.3794 13.5811L63.3927 17.0308L62.6699 16.5375L63.4214 14.1497L62.8477 14.4689L61.8495 15.9747L61.1956 15.5337L64.5171 10.5202L65.1682 10.9641L63.7197 13.1372Z" fill="white"/>
<path d="M69.1266 13.8192C69.7347 14.3414 69.8064 15.0899 68.8254 16.265L67.4285 17.939C66.4504 19.0996 65.7276 19.1402 65.1166 18.6209C64.5057 18.1015 64.4139 17.3501 65.3834 16.1895L66.7803 14.5068C67.7498 13.3463 68.5271 13.3056 69.1266 13.8192ZM67.4773 14.9391L65.9054 16.8278C65.5067 17.3066 65.4178 17.6808 65.7047 17.9245C65.9915 18.1683 66.3214 18.0145 66.7258 17.5271L68.2862 15.6673C68.6992 15.1741 68.7996 14.7563 68.5386 14.5358C68.2776 14.3153 67.8903 14.4459 67.4773 14.9391Z" fill="white"/>
<path d="M72.3654 17.0773L69.8756 20.1295L73.1083 17.9013L73.9544 18.8413L69.5486 22.9205L69.0553 22.3722L73.0452 18.6875L68.5218 21.76L68.1431 21.3393L71.5852 17.0744L67.6096 20.7533L67.1191 20.2049L71.5249 16.1431L72.3654 17.0773Z" fill="white"/>
<path d="M76.6832 22.61L71.7898 26.0654L71.3395 25.4126L75.4871 22.4852L74.8934 21.6148L70.7457 24.551L70.2954 23.8982L75.1888 20.4456L76.6832 22.61Z" fill="white"/>
<path d="M78.0746 24.9893L78.5737 25.9293L73.7606 29.6082L73.3562 28.8538L74.6326 27.9341L74.2109 27.1421L72.7251 27.6672L72.3264 26.9158L78.0746 24.9893ZM75.364 27.4235L77.6587 25.8104L75.037 26.8055L75.364 27.4235Z" fill="white"/>
<path d="M77.8715 29.9011L78.2559 30.876L80.387 30.0056L80.6739 30.7454L75.1494 32.9881L74.8626 32.2512L77.4269 31.2183L77.0425 30.2406L74.4782 31.2735L74.1914 30.5365L79.7331 28.3025L80.0199 29.0423L77.8715 29.9011Z" fill="white"/>
<path d="M75.7467 34.993L75.5229 34.2299L81.2396 32.5095L81.4633 33.2725L75.7467 34.993Z" fill="white"/>
<path d="M78.7503 37.1368L76.229 36.9192L76.0569 36.0721L78.7273 36.3622C78.9052 35.9067 79.4874 35.5382 80.2246 35.3874C81.1654 35.193 82.0116 35.428 82.1464 36.0953L82.4476 37.5953L76.6019 38.7935L76.447 38.0159L78.8248 37.5256L78.7503 37.1368ZM81.4236 36.986L81.3461 36.5914C81.2658 36.1997 80.9187 36.0634 80.368 36.1765C79.8173 36.2897 79.5333 36.5566 79.6136 36.9483L79.6911 37.3399L81.4236 36.986Z" fill="white"/>
</svg>
