<svg width="114" height="115" viewBox="0 0 114 115" fill="none" xmlns="http://www.w3.org/2000/svg">
<path fill-rule="evenodd" clip-rule="evenodd" d="M112.882 65.6312C112.382 65.3658 111.476 64.907 110.115 64.3345C110.811 58.7575 110.632 53.1047 109.585 47.5837C104.079 18.4195 76.0782 -0.788274 47.1675 4.76627C20.0723 9.972 1.64798 35.1059 3.97075 62.2492L1.09923 62.78C-1.50543 34.0518 17.96 7.38999 46.6226 1.89611C77.1118 -3.96176 106.635 16.3038 112.442 47.0453C113.605 53.1736 113.754 59.4539 112.882 65.6312ZM9.08987 63.3184C10.5219 62.9393 11.9651 63.2653 12.6755 63.8151C12.7469 65.9535 12.8071 68.0464 12.8522 70.0824C12.4585 69.7363 11.9983 69.4759 11.5004 69.3173C11.0024 69.1588 10.4774 69.1056 9.95809 69.1611C8.16903 69.3924 7.54887 71.091 7.79317 72.7403C8.06755 74.583 8.83805 75.4626 11.4465 77.7223C14.25 80.1418 16.0425 83.5415 16.4641 87.239C17.0993 92.6229 14.6487 94.6362 10.5745 93.3547C9.04317 92.8511 7.61639 92.0684 6.36493 91.0457C6.34614 89.749 6.32359 88.4409 6.30104 87.1025C7.39204 88.0069 8.63959 88.6998 9.98064 89.1461C11.905 89.7186 12.7093 88.729 12.465 86.9053C12.1869 84.8465 11.0856 83.5574 9.04477 81.6768C5.72222 78.7384 4.15867 75.9176 3.76027 73.4645C3.0687 69.1687 4.69614 64.6644 9.08987 63.3184ZM67.1404 110.549C76.5182 108.758 85.2436 104.448 92.3977 98.0751C94.2093 97.749 95.957 97.423 97.6033 97.1083C92.4057 102.542 86.1847 106.874 79.3053 109.849C72.4258 112.825 65.0266 114.385 57.5416 114.437C50.0566 114.489 42.6366 113.033 35.717 110.154C28.7974 107.274 22.5175 103.03 17.2459 97.6694C18.8545 97.9272 20.5684 98.1926 22.365 98.458C28.4446 103.744 35.6288 107.576 43.3818 109.67C51.1347 111.763 59.2562 112.064 67.1404 110.549ZM85.2715 93.9234C86.4931 93.6618 87.474 92.513 88.0829 87.4778C89.0038 79.8645 90.1276 70.4881 90.9808 61.0435C92.4691 61.2963 93.955 61.5781 95.4384 61.889C94.5438 70.3061 93.4501 78.6437 92.5142 85.6996C91.3867 94.0409 88.906 97.6315 84.813 98.4618C80.3817 99.2012 78.9159 96.4334 79.8066 87.2845C80.5583 79.364 81.4792 69.5365 82.0618 59.6596C83.5652 59.8593 85.0686 60.0754 86.572 60.308C85.8203 70.2531 84.7641 80.1337 83.9072 88.0238C83.3509 93.1006 84.159 94.0713 85.2715 93.9234ZM74.2252 92.6684C75.5482 92.5319 76.4803 94.1244 76.2774 96.4599C76.0895 98.7007 75.0559 99.9632 73.6051 100.138C72.3798 100.263 71.3499 99.2391 71.5191 96.9718C71.6694 94.7879 72.9398 92.7784 74.2252 92.6684ZM64.9341 58.1241C65.4265 62.435 65.8437 66.7194 66.212 70.8294C66.5353 74.0521 66.8096 77.6768 66.9637 81.0664H67.0276C67.4523 77.7375 67.9785 74.2 68.531 70.6474C69.1399 66.6549 69.73 62.5411 70.275 58.4463C71.8436 58.5601 73.4109 58.694 74.9769 58.8482C72.9173 68.9564 70.602 79.3716 68.4596 87.7812C68.1514 92.8807 67.8733 97.2334 67.7305 100.399C66.4 100.494 65.0732 100.574 63.7502 100.631C63.8517 97.5291 64.0659 93.2523 64.3027 88.2286C63.1037 79.8114 61.8672 68.9526 60.1044 57.9648C61.7106 57.9951 63.3205 58.0482 64.9341 58.1241ZM56.7819 62.5601C58.7814 66.6436 59.7361 73.7867 59.4843 82.8219C59.2324 91.6447 57.9808 96.2931 56.1692 98.4467C54.756 100.21 52.7866 100.892 49.9977 100.759C48.8947 100.7 47.7998 100.535 46.7278 100.267C46.5286 92.494 46.6564 76.437 45.7431 58.9885C47.117 58.1952 48.6703 57.7721 50.2533 57.7601C53.1774 57.6653 55.2672 59.2843 56.7819 62.5601ZM51.3283 66.1658C51.0196 66.1279 50.7087 66.2152 50.4638 66.4085C50.7457 78.4958 50.6292 89.2523 50.6329 96.3613C50.8558 96.4478 51.0933 96.489 51.332 96.4827C53.2376 96.3917 54.9665 94.3026 55.1469 82.4541C55.2747 72.8351 53.978 66.0407 51.3283 66.1507V66.1658ZM37.3879 58.7686C38.8687 58.6271 40.3533 58.5007 41.8417 58.3895C42.5333 68.9602 42.8264 79.4437 43.0257 87.7395C43.2399 97.5102 41.3757 100.058 37.5232 99.6296C33.2798 98.9585 31.3855 95.5992 30.8179 86.6968C30.3068 78.9621 29.6415 69.4379 28.6493 59.8075C30.1076 59.6027 31.5721 59.4132 33.043 59.2388C34.0014 69.7715 34.5464 80.1944 34.9824 88.3575C35.2492 93.586 36.1964 94.8409 37.2638 95.0381C38.4177 95.1253 39.1995 94.2533 38.9965 88.7556C38.6695 80.4067 38.241 69.6464 37.3879 58.7686ZM22.0267 96.3841C21.275 89.6466 20.3767 79.7015 19.1176 69.0057C17.8322 69.1093 16.548 69.2167 15.2651 69.3279C14.972 67.053 14.66 64.7288 14.333 62.4009C18.3421 61.5137 22.3888 60.7554 26.4731 60.126C26.7775 62.9393 27.0594 65.7071 27.3075 68.4369C25.997 68.5153 24.689 68.6 23.3836 68.691C24.575 80.0655 25.3605 90.5717 26.0145 97.3054C24.689 97.0173 23.3598 96.7102 22.0267 96.3841ZM98.3249 49.7486C99.0089 53.3704 99.2199 57.0669 98.9526 60.744L97.9604 60.5051C98.3764 54.4504 97.4639 48.3776 95.288 42.7192C95.5611 43.4522 95.8117 44.1941 96.0397 44.9448C95.729 45.0269 95.403 45.0301 95.0908 44.954C94.7786 44.8779 94.4899 44.725 94.2507 44.5088C93.9462 44.2661 93.7621 42.9353 93.202 43.3713C92.9878 43.504 93.0066 43.4472 92.8901 43.7164C92.8638 43.8263 92.8074 43.7581 92.8901 43.8301C93.0254 44.486 93.529 45.1799 94.2507 45.2102C94.2792 45.4774 94.2792 45.7468 94.2507 46.014H94.4612C95.1114 46.4955 95.7391 45.7676 96.16 45.3694C96.4419 46.3249 96.6937 47.2955 96.9117 48.2775C96.89 48.4027 96.8786 48.5296 96.8779 48.6567H96.5622C96.2314 49.233 95.9119 49.1192 95.8105 49.6918L94.6566 49.8055C94.619 50.0444 94.6303 50.0254 94.5514 50.1505C94.1755 50.5297 91.5821 51.3941 90.9883 51.4169V51.7619C90.744 51.7847 90.6913 51.7847 90.5673 51.8757C91.2063 51.9553 91.086 52.2548 91.7212 52.3382C92.097 52.0008 93.1908 51.8605 94.1342 51.8757C94.1342 53.9458 93.0893 54.6397 92.0369 55.5572C91.7588 55.7999 91.661 56.3155 91.4055 56.5961C90.7715 57.3097 90.1816 58.0618 89.639 58.8482C85.7602 58.1999 81.3702 57.6274 76.3826 57.1989C76.5968 56.6397 76.6439 56.0294 76.5179 55.4435C76.3479 55.3712 76.2019 55.2515 76.097 55.0984L74.8379 55.3297C74.6537 54.8444 74.5522 54.4046 73.9997 54.2946C73.2217 53.9155 72.1693 54.8482 71.5867 55.0984C70.3126 54.7193 70.0833 55.1401 68.7566 55.2122C68.2492 54.7458 67.2118 54.3326 66.8773 53.7183C66.727 53.4491 66.8247 53.1572 66.6668 52.9107C66.3849 52.4671 65.9715 52.4444 65.8287 51.7733H65.5129C65.3548 51.5556 65.2152 51.3247 65.0957 51.0832C65.3739 50.6396 65.0957 50.7648 64.9905 50.1619C65.3512 49.7769 65.6676 49.3521 65.9339 48.8955C65.692 48.3433 65.5154 47.7643 65.4077 47.1704C65.761 46.8178 65.7497 46.3439 66.0391 45.904C66.2008 45.6538 66.5653 45.65 66.7721 45.4453C66.9788 45.2405 66.851 44.7931 66.8773 44.7552C66.9036 44.7173 68.4634 43.6709 68.5536 43.6178C68.1552 42.4121 69.0009 42.3931 69.7075 41.7789C69.9057 41.4856 70.0816 41.1776 70.2337 40.8576C69.9255 40.5922 69.9894 40.3912 69.4819 40.2813C69.2677 40.4177 69.0497 40.3495 68.749 40.395C68.9219 39.8035 68.4747 39.6367 68.5386 39.2575C69.1437 38.7229 68.9144 37.9343 68.6438 37.4149C69.7902 36.9485 71.1169 37.3466 72.1054 37.4149C72.2069 37.1078 72.2407 37.2177 72.3159 36.8424C71.8799 36.4177 72.1994 36.0841 72.1054 35.921C71.9025 35.5722 71.6769 35.8262 71.5792 35.231L70.6584 35.0793C70.5945 34.8784 70.6396 34.9694 70.5531 34.8518C70.6509 34.7267 70.5531 34.8518 70.6584 34.7343C71.0117 34.503 71.6093 34.666 71.9175 34.6205C71.9175 34.2414 71.7671 34.4044 72.128 34.2755C72.485 34.4878 72.6654 34.1239 73.1766 34.0442V33.5855C74.2703 33.5551 74.0974 33.1229 74.6424 32.6641C74.6988 32.6186 75.4806 32.3305 75.7963 32.2054C75.9378 32.3659 76.1196 32.4851 76.3225 32.5504V32.0878C76.1195 31.8755 76.0218 31.7466 76.112 31.5153C76.3218 31.1701 76.6581 30.9221 77.0479 30.8253C77.1418 30.9466 77.0479 30.8253 77.1531 30.939C77.1268 31.3181 77.1531 31.1172 77.2584 31.5153C76.9163 31.6101 77.0967 31.4584 76.9426 31.7428C77.2433 31.8717 77.1381 31.7655 77.2584 32.0878H77.0479C76.9552 31.9956 76.8487 31.9188 76.7322 31.8603V32.0878L77.0479 32.3191C77.2508 32.4897 77.3674 32.4594 77.886 32.4328C78.0251 32.0537 78.0326 31.8945 78.4122 31.7428C78.4813 31.9521 78.587 32.1473 78.7242 32.3191C79.0136 32.084 79.7803 31.5229 80.4042 31.7428C80.532 31.7883 80.5696 32.0916 80.9267 31.9741C81.0545 31.9324 81.2048 31.7618 81.0319 31.6291C81.2612 31.5381 81.5055 31.5798 81.6634 31.5153C81.4529 30.8328 81.746 30.7343 82.0806 30.3779C82.4151 30.5674 82.4865 30.757 82.9187 30.8404C82.9159 30.6049 82.9514 30.3705 83.0239 30.1466C82.6105 30.0632 82.6894 30.1466 82.6067 29.6878H82.8135C83.6328 29.138 84.4898 29.938 85.3317 29.3428C83.9485 29.1494 82.7721 29.2745 81.7648 29.1115C81.8277 28.7196 81.7547 28.3179 81.5581 27.974C82.1933 27.72 82.6857 27.1892 83.3397 27.0527V26.7077C82.8127 26.6313 82.2756 26.6701 81.7648 26.8214C81.6746 27.0982 81.6859 27.2499 81.4529 27.3977C81.0223 27.6555 80.5709 27.8762 80.1036 28.0575L79.9983 28.865C80.1365 28.9124 80.2637 28.9876 80.3722 29.086C80.4808 29.1844 80.5684 29.304 80.6298 29.4376C80.3817 29.5665 80.4418 29.5475 80.314 29.7826C79.8818 29.7826 79.6601 29.8812 79.6864 30.7039C79.7691 30.8215 79.7202 30.738 79.7878 30.9352C79.194 31.0186 78.4047 31.4926 78.2168 31.394C78.2168 31.394 77.217 29.8774 77.1682 29.7826C76.2323 30.5409 75.6647 30.6471 74.7552 29.9001C74.9243 29.3428 74.7251 28.7399 74.7552 28.2887C75.083 28.2152 75.4001 28.0992 75.6986 27.9437C75.8903 27.7921 75.6535 27.7541 76.1195 27.7124C76.4914 27.4955 76.8769 27.303 77.2734 27.1361C77.3225 27.2629 77.3938 27.3798 77.4839 27.4812C77.4941 27.3235 77.5296 27.1685 77.5891 27.0224L77.9011 27.1361C77.9011 26.8669 78.7768 26.1996 79.1602 25.9987V25.8849C78.9159 25.8622 78.8633 25.8622 78.7392 25.7674H78.9497C79.2015 25.3048 79.5398 25.6233 79.9983 25.6536C79.9081 25.4792 79.7014 25.5664 79.8931 25.4224C80.4155 24.9181 81.1334 24.9257 81.9415 24.8726C78.7071 22.3828 75.1253 20.3897 71.3124 18.9579H71.1921C70.1359 19.0906 69.3805 18.2868 68.4634 18.7266C68.0875 18.9199 66.2609 18.2943 66.0542 18.4953C65.9377 18.4005 65.8926 18.2337 65.6332 18.1503C65.1672 18.0062 64.4718 18.2602 64.1674 18.2678L63.7464 18.0365C62.9196 17.8887 61.1155 18.1996 60.2848 18.2678C59.3151 18.3436 58.4056 17.919 57.1389 18.2678C55.9851 18.5787 54.8613 18.173 54.2035 18.6128C56.9623 18.9427 59.3527 18.8858 62.4723 18.8403V18.9579H62.3896C62.1904 19.0451 62.6001 19.0716 62.6001 19.0716C62.9759 18.8593 63.3518 19.0526 63.6487 19.1853C63.5698 19.2877 63.5172 19.3181 63.4382 19.4166H64.0697C64.5823 19.2632 65.1281 19.2632 65.6407 19.4166V19.5304C65.4227 19.5759 65.4378 19.5607 65.325 19.6479C66.3135 19.6252 66.8472 19.2688 67.317 19.6479C66.8998 19.7162 65.1183 20.4745 64.7951 20.9294H64.6898V21.0432C65.0078 21.0401 65.3249 21.0783 65.6332 21.1569C65.5393 21.282 65.6332 21.1569 65.528 21.2745V21.3882C65.3955 21.3291 65.2548 21.2907 65.1108 21.2745V21.6119C64.8807 21.6125 64.6577 21.6928 64.4793 21.8394C64.7636 21.8249 65.048 21.8648 65.3175 21.9569C64.9905 23.0261 64.8176 22.6622 64.2689 23.0944C64.4455 23.2688 64.3779 23.1778 64.3741 23.3257C64.096 23.5304 63.7765 23.3825 63.4307 23.3257V23.4394H63.6412C63.7464 23.519 64.0621 23.5873 64.1674 23.6707C64.0471 23.72 63.6713 23.8034 63.9569 23.902C64.0857 23.9956 64.2259 24.0721 64.3741 24.1295V24.3607H63.9569C63.8547 24.2062 63.7133 24.082 63.5473 24.0014C63.3814 23.9207 63.1971 23.8863 63.0135 23.902C62.9722 24.2015 63.0887 24.0498 62.803 24.1295V24.4745L63.6412 24.8195C63.536 24.9143 63.6111 24.8612 63.4307 24.9371C62.882 25.3162 61.6003 25.3845 61.123 25.5134C60.8035 25.5968 60.4615 25.3162 60.2848 25.3958C59.6572 25.6764 59.0069 26.3968 58.1876 26.6622C57.4359 26.9011 56.9209 26.7115 56.406 27.121C56.8383 27.6897 55.9174 27.8489 55.6543 28.5049C55.534 28.8233 55.9475 29.1494 55.6543 29.4224H54.9026C54.5268 29.5741 54.6019 29.2821 54.1697 29.0774C53.8641 28.9711 53.5319 28.9711 53.2263 29.0774C53.1925 28.9636 53.1549 28.8499 53.1211 28.7323L52.8054 28.8499C52.0987 28.3797 51.892 27.6897 51.3395 27.3333C51.4673 26.7532 51.0464 26.575 51.129 26.0669C50.7532 26.0214 50.8659 26.1238 50.7081 25.8394C50.7945 25.7219 50.7457 25.8053 50.8133 25.6082C51.0802 25.5361 51.7304 25.2745 51.862 25.0318C51.8883 24.9219 51.9446 24.9901 51.862 24.9181C51.7003 24.7058 51.7718 24.7551 51.4448 24.6868C51.2042 25.229 50.5089 24.9598 50.3961 24.8006H50.2909C50.3247 24.6868 50.3623 24.5731 50.3961 24.4555C50.6104 24.3721 50.6517 24.2167 50.8133 23.883H50.6066C50.3698 24.0423 50.2608 23.9437 49.9752 23.883C50.0353 23.4129 49.8737 23.4508 50.0804 23.3067L50.1857 23.0754H49.8699C49.7083 23.2195 49.8173 23.1513 49.6632 23.0754C49.2006 22.8705 48.8278 22.5025 48.6146 22.0403C48.0433 22.1503 47.9832 21.9418 47.566 21.8091L46.3068 22.0403L45.6754 21.8091C44.965 21.6877 44.8072 22.0934 44.2096 21.464C44.046 21.5661 43.8688 21.644 43.6834 21.6953C43.6496 21.5816 43.6157 21.464 43.5782 21.3503C43.8225 21.3275 43.8751 21.3275 43.9991 21.2365C43.3451 21.1721 43.161 20.8157 42.74 20.6602C42.3905 20.5313 42.1311 20.8498 41.9018 20.8915L41.2742 20.774L41.0637 21.119C40.3472 21.5809 39.4965 21.7841 38.6507 21.6953V21.9266C38.9788 21.9244 39.3025 22.0025 39.5941 22.1541V22.3854C38.3672 22.3643 37.1406 22.4417 35.9258 22.6167C35.779 22.6419 35.6291 22.6419 35.4823 22.6167C35.2229 22.7835 34.9674 22.9579 34.7306 23.1285C35.2041 22.9351 36.6399 22.5484 37.0984 22.7494C37.2563 22.8176 37.324 23.0792 37.7261 22.9806C40.1842 22.3664 40.9209 23.6517 43.285 23.7844C43.3038 23.6252 43.1985 23.8337 43.1797 23.6707C42.9768 23.5797 43.3902 23.5569 43.3902 23.5569C43.6437 23.5721 43.8952 23.6102 44.1419 23.6707C44.1119 23.3863 44.0705 23.6138 44.1419 23.3257C44.9726 23.8186 46.2129 22.9465 47.1826 23.7844C47.5321 24.4404 47.1826 24.5427 47.9343 25.1645C47.7727 25.7143 47.8929 25.9228 47.8291 26.6811C47.4945 26.7153 47.4081 26.7039 47.3066 26.7949C47.0838 26.9728 46.8729 27.1653 46.6752 27.3712C46.2858 27.2778 45.9018 27.1627 45.5251 27.0262V27.1399C45.7009 27.2557 45.8445 27.415 45.9423 27.6025C45.6258 27.7896 45.2586 27.8706 44.8936 27.8338C44.7885 27.7163 44.6587 27.624 44.5137 27.5636C44.3687 27.5033 44.2121 27.4764 44.0555 27.4849V27.6025H44.266C44.5704 27.9816 44.9613 27.83 45.1041 28.4063H44.9989C44.6531 28.0271 43.8074 28.0499 43.2173 28.1788C43.0783 27.8755 42.9655 28.0423 42.7964 27.8338C42.0447 26.8745 41.4659 27.5039 40.0714 27.2575V27.1399C40.1572 27.0805 40.229 27.0028 40.2819 26.9124H39.44C38.9519 26.9446 38.4623 26.9446 37.9742 26.9124V27.0262H38.1847C38.4837 27.2094 38.7997 27.363 39.1281 27.4849V27.7162H38.9176C38.7635 27.7617 37.9516 27.3826 37.8689 27.4849C37.5307 27.7086 37.448 27.8868 36.9256 27.9475C36.888 27.7086 36.8992 27.7238 36.8203 27.6025C36.6275 27.704 36.4085 27.7437 36.1926 27.7162V27.6025C36.5948 27.3636 36.6361 27.03 36.8203 26.5674H36.6098C35.8318 27.9665 33.0618 27.629 33.0467 29.7864C33.1557 29.8319 33.509 29.8091 33.6744 29.9039C34.0503 30.1125 33.8849 30.5447 34.4073 30.7077C34.7439 30.5721 35.1194 30.5721 35.456 30.7077C35.9596 30.8821 36.4858 31.3485 37.0308 31.5153C37.7825 31.7466 38.0306 31.5153 38.4966 31.7428C38.4281 32.0451 38.3928 32.3541 38.3914 32.6641C38.6996 32.5656 38.8311 32.4366 39.0228 32.7817C38.7785 32.8006 38.7259 32.8006 38.6019 32.8954H38.7071C38.8977 33.1484 39.1503 33.347 39.44 33.4717C39.6505 33.1684 39.767 33.2594 39.861 32.7817C39.6839 32.4517 39.5428 32.1034 39.44 31.7428C40.0301 31.7428 40.5112 31.5153 40.6991 31.0527C40.7856 30.9163 40.7818 30.8594 40.8044 30.594C40.4889 30.4126 40.2056 30.1793 39.9662 29.9039C40.1181 29.7609 40.2589 29.6063 40.3872 29.4414C40.3102 29.0548 40.2047 28.6746 40.0714 28.3039C40.1889 28.2454 40.2957 28.1672 40.3872 28.0726L41.6425 28.3039C41.7816 28.3039 41.9056 28.1067 42.1687 28.1902C43.067 28.4631 42.6799 28.8575 43.7398 28.7627C43.6477 29.0239 43.6477 29.3091 43.7398 29.5703C43.9637 29.7369 44.2198 29.8544 44.4915 29.9153C45.074 29.9911 45.2657 29.229 45.8521 28.994C45.8746 29.0546 47.5923 31.3788 47.6374 31.4091C48.156 31.7883 48.5995 31.2878 48.8927 31.8717H48.7875C48.686 31.9855 48.8927 31.9855 48.8927 31.9855C49.3851 32.3267 49.5392 32.0689 49.5242 33.0205C49.34 33.0926 49.4227 33.0433 49.3137 33.1381C49.558 33.1381 49.6106 33.1381 49.7346 33.2518C49.5365 33.3932 49.3889 33.5953 49.3137 33.8281C49.6294 33.9798 49.5279 34.0746 49.9413 34.1731C50.0329 34.0786 50.1396 34.0004 50.2571 33.9419C50.3544 34.3444 50.5738 34.7062 50.8847 34.9769C50.7457 35.3258 50.757 35.4433 50.3623 35.5533C49.9865 35.0983 49.9639 35.3182 49.4189 35.4395C49.4189 35.0073 49.5429 35.1551 49.1032 35.0907C48.719 35.1164 48.3335 35.1164 47.9493 35.0907C48.0771 34.2414 48.7499 34.0101 48.998 33.2518H48.686C48.2238 33.6064 47.6836 33.8432 47.1112 33.9419C46.7842 33.9874 46.3031 33.703 45.9573 33.9419C46.4647 33.9419 46.833 34.0404 47.0059 34.4006H46.6902C46.1468 33.9993 45.4838 33.7973 44.811 33.8281C44.5779 34.1011 44.1983 34.2338 43.9728 34.5182H43.8676V34.6319H44.078C44.4539 34.2528 45.5401 33.8736 45.8596 34.5182H45.9648C46.0701 34.6319 45.8633 34.6319 45.8596 34.6319C45.7807 34.7115 45.6266 34.7836 45.5476 34.8632C45.7468 34.9769 45.7581 35.3371 45.8596 35.667H45.9648C45.9546 35.507 45.9912 35.3475 46.0701 35.2082C46.2956 35.4585 46.7278 35.3599 46.9082 35.667C46.8223 35.7278 46.7505 35.8067 46.6977 35.8983H46.9082C47.0847 35.7026 47.2997 35.5463 47.5396 35.4395C47.6336 35.7163 47.6486 35.6215 47.7464 35.8983C46.8105 35.9893 46.0174 36.7514 45.2319 37.0357C45.1172 36.8647 45.045 36.6683 45.0214 36.4632C45.2289 36.4079 45.4133 36.287 45.5476 36.1182C44.5742 36.1864 43.2399 36.7476 43.3451 38.0708C42.5934 38.1163 42.4543 38.4083 41.9808 38.5334C41.7699 39.0323 41.4875 39.4974 41.1426 39.9135V40.0272H41.0374C41.0599 39.6481 41.2629 39.7542 40.9321 39.5685V40.0272H40.8269C40.7254 40.1448 40.9321 40.141 40.9321 40.1448C41.0167 40.3112 41.1229 40.4654 41.2479 40.6035C41.1802 40.8045 41.2253 40.7173 41.1426 40.8348C40.9772 41.0054 40.9509 40.922 40.8269 41.1798H40.9321V41.2936C40.1804 41.3163 38.7898 42.3476 38.7296 43.3675C39.1827 44.0405 39.3704 44.8599 39.2558 45.6652H38.8349C38.6286 45.1994 38.3451 44.7724 37.9967 44.4026C38.0881 44.2592 38.1589 44.1034 38.2072 43.9401C37.8802 43.705 37.899 43.5609 37.3653 43.4813C36.9894 43.705 36.9256 43.3145 36.6136 43.25C36.2377 43.1628 35.674 43.3524 35.0425 43.3675V43.4813C35.3019 43.6292 35.1139 43.432 35.253 43.7126H34.8057C34.5126 43.868 33.915 43.6557 33.6519 43.4813C33.1708 43.5306 31.8365 44.2623 31.7726 44.6187C31.7501 44.8614 32.0395 45.286 31.9831 45.5401L31.6674 45.6538V47.1704C31.7876 47.7316 32.2499 48.0159 32.4191 48.687C32.9866 48.7515 32.9039 48.9524 33.4677 49.032C33.7646 48.7666 34.0277 48.8273 34.4111 48.9145C34.4863 48.6415 34.8208 47.7771 35.0425 47.6481C35.4285 47.4457 35.8662 47.3664 36.2979 47.4207C36.3634 47.6045 36.3989 47.7978 36.4031 47.9932C35.9446 48.2282 36.1137 48.5581 36.2979 48.9145C35.8205 49.051 35.6852 49.4756 35.253 49.7221V49.8358H37.1323C37.3202 50.1354 37.4517 50.0974 37.5495 50.5259C37.6058 50.7723 37.2676 51.7126 37.4442 52.1373C37.4982 52.3655 37.6156 52.5735 37.7828 52.7367C37.9499 52.8999 38.1597 53.0116 38.3876 53.0586C38.538 53.0586 39.1882 52.5695 39.752 52.8273L40.0677 53.2861C40.2594 53.3506 40.2255 53.1951 40.2782 53.1724C40.857 52.9449 40.654 52.2889 41.1163 52.0349C41.5786 51.7809 42.0522 52.0084 42.4807 51.3449L42.7926 51.4586V51.8036C42.5521 51.9591 42.6009 51.9439 42.5821 52.0349V52.1486C42.7494 52.0538 42.9256 51.9763 43.1083 51.9174C43.1083 51.6178 43.1083 51.7354 43.2136 51.3449H43.3188C43.379 51.834 43.9277 52.2245 44.2622 52.3799C44.6381 52.1297 45.0778 52.452 45.6228 52.4937V52.0349C45.9272 52.088 45.8182 52.2017 45.9385 52.2624C46.2176 52.2433 46.4976 52.2433 46.7767 52.2624C46.7992 52.4254 46.6902 52.2169 46.6714 52.3799C46.4722 52.4671 46.8819 52.4937 46.8819 52.4937C46.9683 52.1145 46.833 52.3193 47.0924 52.1486C47.1863 52.2738 47.0924 52.1486 47.1976 52.2624C47.1262 52.7325 47.0247 52.9487 47.1976 53.07C47.5735 53.4491 48.265 54.2643 48.7687 54.4501C49.0889 54.487 49.4132 54.4481 49.7158 54.3363C50.7006 54.1771 51.4936 55.0946 51.4974 56.1752C51.6273 56.2716 51.7276 56.403 51.7868 56.5544C47.4757 56.6985 43.0069 57.0056 38.5605 57.4188C38.5993 57.3101 38.6471 57.2048 38.7033 57.1041C38.8274 56.8918 39.1995 56.9373 39.3348 56.7591L39.4362 56.0691C39.5828 55.8454 39.8121 56.0084 39.9624 55.724C40.0723 55.233 40.1077 54.7281 40.0677 54.2264C40.0392 53.9754 39.9325 53.7399 39.763 53.554C39.5935 53.368 39.3699 53.241 39.1243 53.1913C39.0318 53.2847 38.9253 53.3628 38.8086 53.4226C38.8086 53.8738 39.0454 53.7221 38.5981 53.8814C38.3275 53.669 37.9973 53.5482 37.6547 53.5363C37.5232 53.4188 37.5645 53.0889 37.4442 52.96C37.2187 52.7174 36.779 52.7818 36.6061 52.7325C36.3467 51.8226 35.9934 51.1212 35.1402 51.1212C34.7381 50.8178 34.0766 50.8633 33.6707 50.5448C33.4226 50.3515 33.2647 49.8548 32.919 49.741L31.6598 49.9685C30.4107 49.6369 29.2593 49.0061 28.3035 48.1297C28.3749 47.8984 28.4425 47.6671 28.514 47.4396C28.2208 47.1704 28.1381 46.7306 27.8863 46.4045C27.563 45.9723 26.9542 45.7903 26.6272 45.3657C26.7129 45.3062 26.7848 45.2286 26.8377 45.1382C26.4618 45.0206 26.2889 44.9221 26.2062 44.4481H25.8943C25.7552 44.2017 25.1426 43.068 24.9471 42.9315C24.7896 42.8379 24.6064 42.798 24.4247 42.8178V43.0453C24.65 43.3373 24.9016 43.6077 25.1764 43.8528C25.0411 43.9173 25.1012 43.8528 25.0711 43.9666C25.4244 44.5239 26.0935 45.1306 26.225 46.1543H26.5407C26.6562 46.3263 26.7284 46.5241 26.7512 46.7306C26.6385 46.833 26.7512 46.7306 26.646 46.8443H26.4355C26.3521 46.632 26.2249 46.44 26.0622 46.2811C25.8996 46.1222 25.7052 46.0002 25.4921 45.923C25.5334 45.6007 25.6199 45.5969 25.4921 45.3467C25.163 45.0332 24.7688 44.7975 24.3382 44.6566V44.5429H24.4284C24.5209 44.4495 24.6275 44.3714 24.7442 44.3116V44.1979H24.6389C24.4735 43.7505 24.2368 43.9211 24.0075 43.6216C23.6617 43.1666 23.6767 42.2832 23.2746 41.8964C22.9363 41.5704 22.3913 41.6841 22.0155 41.4377C22.0155 41.4377 21.3239 40.467 21.2638 40.3988C21.4479 40.3268 21.3652 40.3988 21.4742 40.285C21.2649 40.1791 21.079 40.0313 20.9278 39.8508C20.7767 39.6703 20.6633 39.4607 20.5947 39.2348C17.3615 45.7183 15.8883 52.95 16.325 60.1942L15.329 60.3497C14.6132 49.5946 17.9978 38.9701 24.7904 30.6491C31.5831 22.3281 41.2706 16.9395 51.8715 15.5854C62.4723 14.2313 73.1855 17.014 81.8198 23.3644C90.4541 29.7148 96.357 39.1531 98.3212 49.7486H98.3249ZM97.0057 95.4286C95.62 95.7926 94.2419 96.1389 92.8713 96.4675C95.5023 87.9366 99.024 75.2768 102.268 63.3791C104.022 63.7961 105.776 64.236 107.53 64.6985C107.27 75.7621 107.154 84.6987 107.282 92.4106C105.841 92.8782 104.411 93.3243 102.993 93.749C102.963 91.9821 102.952 90.1281 102.959 88.1641C101.599 88.5079 100.247 88.8377 98.9037 89.1537C98.2234 91.3755 97.5958 93.4798 97.0019 95.4286H97.0057ZM103.207 84.02C103.282 82.0408 103.37 79.9694 103.47 77.8057C103.534 75.91 103.745 72.5886 103.876 70.3592H103.775C103.207 72.5924 102.354 76.0124 101.828 77.9422C101.211 80.2171 100.591 82.4617 99.9862 84.6456C101.057 84.4257 102.129 84.2285 103.207 84.02Z" fill="white"/>
<path d="M6.76842 47.4547L10.9968 47.5343L7.14428 45.8092L7.38482 44.6982L13.2406 47.5267C14.3682 48.0765 14.744 48.4897 14.6388 48.9864C14.5959 49.2 14.5032 49.4002 14.3682 49.5703L13.2406 49.3239C13.3077 49.2484 13.3578 49.1592 13.3872 49.0623C13.4285 48.8613 13.282 48.6831 12.8723 48.4746L6.5166 48.5921L6.76842 47.4547Z" fill="white"/>
<path d="M11.5226 42.6731L8.72627 40.3717L9.10212 39.2607L11.8571 41.6835L16.5064 41.7821L16.1306 42.8778L12.8907 42.7148L13.4846 43.3556L15.7059 44.1139L15.3751 45.1186L7.98584 42.5556L8.32035 41.5736L11.5226 42.6731Z" fill="white"/>
<path d="M17.5102 39.5073L17.0667 40.4476L10.012 37.0352L10.8501 35.2646C11.226 34.4608 12.3911 34.4077 13.5262 34.9537C14.6613 35.4997 15.4055 36.4703 15.0296 37.2855L14.6537 38.1082L17.5102 39.5073ZM13.5938 37.6116L13.8156 37.1566C14.0374 36.6826 13.7667 36.2694 13.094 35.9433C12.4212 35.6172 11.9664 35.6779 11.7259 36.1518L11.5003 36.622L13.5938 37.6116Z" fill="white"/>
<path d="M13.0139 31.2199L13.7356 30.0332L21.0497 33.1195L20.4483 34.0787L18.569 33.2256L17.9601 34.2266L19.5462 35.5764L18.9674 36.528L13.0139 31.2199ZM17.5242 32.7365L14.2091 31.1593L17.0506 33.5062L17.5242 32.7365Z" fill="white"/>
<path d="M13.7378 26.6803L14.2264 26.013L15.1736 26.722L14.6849 27.3855L13.7378 26.6803ZM14.5609 25.5429L15.0345 24.8945L15.9816 25.6035L15.493 26.2671L14.5609 25.5429ZM22.4538 31.1619L21.8412 31.996L15.572 27.3173L16.1846 26.4794L22.4538 31.1619Z" fill="white"/>
<path d="M20.5812 25.8196L21.4832 24.7959L19.2281 22.7789L19.9197 21.9902L25.7604 27.2415L25.0764 28.0187L22.374 25.5922L21.4682 26.6197L24.1706 29.0424L23.4865 29.8197L17.6646 24.5798L18.3486 23.8215L20.5812 25.8196Z" fill="white"/>
<path d="M25.0794 20.5998L24.9629 20.4747C24.3089 19.7354 23.9556 19.5989 23.6286 19.8946C23.3016 20.1903 23.388 20.5657 24.0458 21.305L26.1055 23.6254C26.782 24.3837 27.1428 24.5202 27.466 24.2283C27.7893 23.9363 27.6953 23.5534 27.0225 22.7951L26.7406 22.4766L27.4924 21.7866L27.7179 22.0368C28.665 23.1022 29.2213 24.251 28.2516 25.1193C27.2819 25.9875 26.1844 25.324 25.2447 24.2852L23.3655 22.143C22.144 20.7666 22.0011 19.7429 22.8355 18.9884C23.6699 18.2339 24.6171 18.5372 25.5755 19.6216L25.8348 19.9136L25.0794 20.5998Z" fill="white"/>
<path d="M28.6843 18.2977L29.3871 17.7934C30.0749 17.3005 31.21 17.9716 31.8527 18.8815C32.7247 20.1176 32.9164 21.2133 32.2473 21.691L30.6312 22.8512L26.0984 16.4057L26.9365 15.8066L28.6843 18.2977ZM30.8229 21.3308L31.3077 20.982C31.6197 20.7583 31.6046 20.3526 31.0935 19.6323C30.65 19.0029 30.1689 18.7033 29.8569 18.927L29.3721 19.2721L30.8229 21.3308Z" fill="white"/>
<path d="M33.4231 15.659L32.8743 12.0609L33.8967 11.4922L34.3327 15.1662L37.7153 18.3813L36.7118 18.9425L34.4116 16.6335V17.5093L35.5392 19.5795L34.6371 20.0837L30.8823 13.1718L31.7844 12.6676L33.4231 15.659Z" fill="white"/>
<path d="M36.9829 10.0668L38.2608 9.53223L42.3576 16.3569L41.3428 16.7816L40.3318 14.9844L39.2531 15.4356L39.7191 17.4413L38.7118 17.8811L36.9829 10.0668ZM39.7567 13.9531L37.9864 10.7228L38.9148 14.3057L39.7567 13.9531Z" fill="white"/>
<path d="M46.305 6.93052C47.3273 6.71062 48.1541 7.23384 48.5601 9.20542L49.1577 11.9998C49.5786 13.9638 49.0299 14.741 48.0076 14.9647C46.9852 15.1884 46.1283 14.6879 45.7261 12.7467L45.1285 9.95235C44.7301 8.00352 45.2977 7.15043 46.305 6.93052ZM46.1358 9.55045L46.8086 12.6974C46.9815 13.4974 47.2934 13.8879 47.7708 13.7818C48.2481 13.6756 48.3571 13.2092 48.1842 12.3979L47.5152 9.26988C47.3386 8.45091 46.989 8.0111 46.5568 8.10589C46.1245 8.20067 45.9592 8.72011 46.1358 9.55045Z" fill="white"/>
<path d="M52.9968 8.64154V8.46714C52.899 7.47755 52.6923 7.15907 52.2451 7.20457C51.7978 7.25006 51.6587 7.60267 51.7602 8.59225L52.0684 11.6899C52.1699 12.7098 52.3841 13.0283 52.8201 12.9828C53.2561 12.9373 53.3989 12.5733 53.2974 11.5648L53.2561 11.1401L54.2784 11.034L54.3122 11.3714C54.4551 12.797 54.2258 14.0482 52.9479 14.1771C51.6023 14.3136 51.1588 13.1193 51.0198 11.7278L50.7341 8.87283C50.55 7.03395 51.031 6.1202 52.1473 6.00645C53.1922 5.90029 53.8462 6.7003 53.9928 8.14486L54.0304 8.52401L52.9968 8.64154Z" fill="white"/>
<path d="M56.2332 5.87305H58.135C59.0896 5.87305 59.4617 6.80576 59.4542 7.8105C59.4542 8.56881 59.1573 9.40294 58.7025 9.52805C59.2325 9.85033 59.4956 10.4115 59.4843 11.4238C59.4843 12.7887 59.0558 13.7556 58.2214 13.7442L56.1467 13.7252L56.2332 5.87305ZM57.1916 12.6447H57.8531C58.2289 12.6447 58.4281 12.311 58.4357 11.4276C58.4357 10.6503 58.2628 10.2105 57.8794 10.2067H57.2179L57.1916 12.6447ZM57.2292 9.08445H57.7704C58.2214 9.08445 58.4131 8.7053 58.4206 8.02283C58.4282 7.34036 58.274 7.01429 57.808 7.0105H57.2517L57.2292 9.08445Z" fill="white"/>
<path d="M62.0768 14.028L61.0544 13.9295L61.8061 6.08105L62.8322 6.18342L62.0768 14.028Z" fill="white"/>
<path d="M65.7943 14.6128L64.7795 14.4233L65.9973 7.85259L64.7419 7.61752L64.9599 6.43457L68.4855 7.09808L68.2675 8.28103L67.0121 8.04217L65.7943 14.6128Z" fill="white"/>
<path d="M70.803 10.8629L72.1034 11.2686L72.9904 8.36428L73.9752 8.6714L71.6787 16.2089L70.694 15.9018L71.7539 12.4136L70.4534 12.0117L69.3935 15.4999L68.405 15.1928L70.6977 7.65527L71.6825 7.96238L70.803 10.8629Z" fill="white"/>
<path d="M76.1545 14.5789L74.0422 17.1419L72.9973 16.6832L75.3088 14.0291C74.9593 13.4945 75.0081 12.5845 75.4065 11.6746C75.9102 10.5182 76.7972 9.77883 77.6015 10.1314L79.4206 10.9352L76.2823 18.1391L75.3389 17.722L76.6168 14.7836L76.1545 14.5789ZM78.0112 11.5722L77.5376 11.3751C77.064 11.1665 76.6544 11.4395 76.3612 12.1334C76.068 12.8272 76.1319 13.3201 76.6055 13.5286L77.0828 13.741L78.0112 11.5722Z" fill="white"/>
<path d="M83.4948 17.168L86.4189 15.0296L87.3886 15.6817L84.3592 17.7481L83.0663 22.2562L82.1191 21.6116L83.1039 18.4912L82.3522 18.9083L81.0442 20.8761L80.1873 20.2998L84.5396 13.748L85.3928 14.3281L83.4948 17.168Z" fill="white"/>
<path d="M90.5796 18.0593C91.3764 18.7418 91.4704 19.72 90.185 21.2556L88.3546 23.4433C87.0729 24.9599 86.1258 25.013 85.3252 24.3343C84.5246 23.6556 84.4043 22.6736 85.6747 21.157L87.5051 18.9579C88.7755 17.4413 89.7941 17.3883 90.5796 18.0593ZM88.4185 19.5229L86.3588 21.9911C85.8363 22.6167 85.7198 23.1058 86.0957 23.4243C86.4715 23.7428 86.9038 23.5419 87.4337 22.9049L89.4784 20.4745C90.0196 19.83 90.1512 19.284 89.8091 18.9958C89.4671 18.7077 88.9597 18.8783 88.4185 19.5229Z" fill="white"/>
<path d="M94.8236 22.3166L91.5612 26.3052L95.7971 23.3934L96.9058 24.6218L91.1327 29.9526L90.4862 29.2361L95.7144 24.4209L89.7871 28.436L89.291 27.8863L93.8013 22.3128L88.5919 27.1204L87.9492 26.4038L93.7223 21.0957L94.8236 22.3166Z" fill="white"/>
<path d="M100.482 29.5472L94.0695 34.0629L93.4794 33.2098L98.9143 29.3842L98.1363 28.2467L92.7014 32.0837L92.1113 31.2306L98.5234 26.7188L100.482 29.5472Z" fill="white"/>
<path d="M102.305 32.6562L102.959 33.8847L96.652 38.6923L96.122 37.7065L97.7946 36.5046L97.2421 35.4695L95.2951 36.1558L94.7727 35.1738L102.305 32.6562ZM98.753 35.8373L101.76 33.7292L98.3245 35.0297L98.753 35.8373Z" fill="white"/>
<path d="M102.038 39.0754L102.542 40.3494L105.335 39.2119L105.711 40.1788L98.4717 43.1096L98.0958 42.1466L101.456 40.7968L100.952 39.5191L97.5922 40.8688L97.2163 39.9058L104.478 36.9863L104.854 37.9532L102.038 39.0754Z" fill="white"/>
<path d="M99.2543 45.7299L98.9612 44.7327L106.452 42.4844L106.745 43.4815L99.2543 45.7299Z" fill="white"/>
<path d="M103.19 48.5307L99.8862 48.2463L99.6606 47.1392L103.16 47.5184C103.393 46.9231 104.156 46.4416 105.122 46.2444C106.355 45.9904 107.463 46.2975 107.64 47.1695L108.035 49.1297L100.375 50.6956L100.172 49.6795L103.288 49.0387L103.19 48.5307ZM106.693 48.3335L106.591 47.8179C106.486 47.306 106.031 47.1278 105.31 47.2757C104.588 47.4236 104.216 47.7724 104.321 48.2842L104.423 48.7961L106.693 48.3335Z" fill="white"/>
</svg>
