<svg width="82" height="82" viewBox="0 0 82 82" fill="none" xmlns="http://www.w3.org/2000/svg">
<path d="M82 41C82 51.8739 77.6804 62.3024 69.9914 69.9914C62.3024 77.6804 51.8739 82 41 82C30.1261 82 19.6976 77.6804 12.0086 69.9914C4.31963 62.3024 0 51.8739 0 41C0 30.1261 4.31963 19.6976 12.0086 12.0086C19.6976 4.31963 30.1261 0 41 0C51.8739 0 62.3024 4.31963 69.9914 12.0086C77.6804 19.6976 82 30.1261 82 41ZM34.7987 26.1016C34.4156 25.8288 33.9647 25.6667 33.4956 25.6331C33.0264 25.5995 32.557 25.6957 32.1389 25.9111C31.7208 26.1265 31.37 26.4529 31.125 26.8544C30.88 27.2559 30.7503 27.7171 30.75 28.1875V53.8125C30.7503 54.2829 30.88 54.7441 31.125 55.1456C31.37 55.5471 31.7208 55.8735 32.1389 56.0889C32.557 56.3043 33.0264 56.4005 33.4956 56.3669C33.9647 56.3333 34.4156 56.1712 34.7987 55.8984L52.7362 43.0859C53.0684 42.8488 53.3392 42.5359 53.526 42.1731C53.7128 41.8103 53.8103 41.4081 53.8103 41C53.8103 40.5919 53.7128 40.1897 53.526 39.8269C53.3392 39.4641 53.0684 39.1512 52.7362 38.9141L34.7987 26.1016Z" fill="#FFC53A"/>
</svg>
